<svg width="40" height="40" viewBox="0 0 40 40" fill="none" xmlns="http://www.w3.org/2000/svg">
<path d="M20 0C8.9543 0 0 8.9543 0 20V20.03C0 31.0757 8.92431 40 19.97 40H20C31.0457 40 40 31.0757 40 20.03V20C40 8.9543 31.0757 0 20.03 0H20Z" fill="url(#paint0_linear_489_1162)"/>
<path d="M20 0.5H20.0303C30.7987 0.500147 39.5 9.22955 39.5 20V20.0303C39.4999 30.7987 30.7704 39.5 20 39.5H19.9697C9.2004 39.4999 0.500147 30.7996 0.5 20.0303V20C0.5 9.23044 9.23044 0.5 20 0.5Z" stroke="white" stroke-opacity="0.08"/>
<mask id="mask0_489_1162" style="mask-type:luminance" maskUnits="userSpaceOnUse" x="10" y="10" width="20" height="20">
<path d="M10 10H30V30H10V10Z" fill="white"/>
</mask>
<g mask="url(#mask0_489_1162)">
<mask id="mask1_489_1162" style="mask-type:luminance" maskUnits="userSpaceOnUse" x="10" y="10" width="20" height="20">
<path d="M10 10H30V30H10V10Z" fill="white"/>
</mask>
<g mask="url(#mask1_489_1162)">
<path d="M26.25 15.625H13.75C12.7145 15.625 11.875 16.4645 11.875 17.5V25C11.875 26.0355 12.7145 26.875 13.75 26.875H26.25C27.2855 26.875 28.125 26.0355 28.125 25V17.5C28.125 16.4645 27.2855 15.625 26.25 15.625Z" stroke="#F1CB68" stroke-width="1.25" stroke-linejoin="round"/>
<path d="M25.4437 15.6264V14.4546C25.4436 14.0382 25.283 13.6973 24.9621 13.4318C24.6412 13.1663 24.2761 13.0726 23.867 13.1505L13.5677 14.9085C13.2622 14.9668 13.0078 15.1189 12.8046 15.3647C12.6013 15.6106 12.4998 15.893 12.5 16.2119V18.1264H11.25V16.2128C11.2496 15.5936 11.4467 15.0454 11.8412 14.5682C12.2358 14.091 12.7412 13.7937 13.3574 13.6764L23.633 11.9226C24.4272 11.7713 25.1358 11.9533 25.7588 12.4686C26.3819 12.9839 26.6935 13.6459 26.6937 14.4546V15.6264H25.4437Z" fill="#F1CB68"/>
<path d="M24.375 22.5C24.0298 22.5 23.7352 22.378 23.4911 22.1339C23.247 21.8898 23.125 21.5952 23.125 21.25C23.125 20.9048 23.247 20.6102 23.4911 20.3661C23.7352 20.122 24.0298 20 24.375 20C24.7202 20 25.0148 20.122 25.2589 20.3661C25.503 20.6102 25.625 20.9048 25.625 21.25C25.625 21.5952 25.503 21.8898 25.2589 22.1339C25.0148 22.378 24.7202 22.5 24.375 22.5Z" fill="#F1CB68"/>
</g>
</g>
<defs>
<linearGradient id="paint0_linear_489_1162" x1="0" y1="0" x2="42.6024" y2="2.99612" gradientUnits="userSpaceOnUse">
<stop stop-color="#222126"/>
<stop offset="1" stop-color="#111116"/>
</linearGradient>
</defs>
</svg>
