<svg width="16" height="16" viewBox="0 0 16 16" fill="none" xmlns="http://www.w3.org/2000/svg">
<mask id="mask0_893_25806" style="mask-type:luminance" maskUnits="userSpaceOnUse" x="0" y="0" width="16" height="16">
<path d="M0 0H16V16H0V0Z" fill="white"/>
</mask>
<g mask="url(#mask0_893_25806)">
<path fill-rule="evenodd" clip-rule="evenodd" d="M1.33203 3.99998C1.33203 4.36817 1.63051 4.66665 1.9987 4.66665H13.9987C14.3669 4.66665 14.6654 4.36817 14.6654 3.99998C14.6654 3.63179 14.3669 3.33331 13.9987 3.33331H1.9987C1.63051 3.33331 1.33203 3.63179 1.33203 3.99998Z" fill="#9CA3AF"/>
<path fill-rule="evenodd" clip-rule="evenodd" d="M5.24985 1.25241C4.85932 1.64294 4.66406 2.11434 4.66406 2.66662V3.99996C4.66406 4.36814 4.96254 4.66662 5.33073 4.66662C5.69892 4.66662 5.9974 4.36814 5.9974 3.99996V2.66662C5.9974 2.48253 6.06249 2.3254 6.19266 2.19522C6.32283 2.06505 6.47997 1.99996 6.66406 1.99996H9.33073C9.51482 1.99996 9.67196 2.06505 9.80214 2.19522C9.93231 2.3254 9.9974 2.48253 9.9974 2.66662V3.99996C9.9974 4.36814 10.2959 4.66662 10.6641 4.66662C11.0322 4.66662 11.3307 4.36814 11.3307 3.99996V2.66662C11.3307 2.11434 11.1355 1.64294 10.7449 1.25241C10.3544 0.861888 9.88302 0.666626 9.33073 0.666626H6.66406C6.11178 0.666626 5.64038 0.861888 5.24985 1.25241ZM2.66406 3.99996C2.66406 3.63177 2.96254 3.33329 3.33073 3.33329C3.69892 3.33329 3.9974 3.63177 3.9974 3.99996V13.3333C3.9974 13.5174 4.06248 13.6745 4.19266 13.8047C4.32283 13.9349 4.47997 14 4.66406 14H11.3307C11.5148 14 11.672 13.9349 11.8021 13.8047C11.9323 13.6745 11.9974 13.5174 11.9974 13.3333V3.99996C11.9974 3.63177 12.2959 3.33329 12.6641 3.33329C13.0322 3.33329 13.3307 3.63177 13.3307 3.99996V13.3333C13.3307 13.8856 13.1355 14.357 12.7449 14.7475C12.3544 15.138 11.883 15.3333 11.3307 15.3333H4.66406C4.11178 15.3333 3.64037 15.138 3.24985 14.7475C2.85932 14.357 2.66406 13.8856 2.66406 13.3333V3.99996Z" fill="#9CA3AF"/>
<path fill-rule="evenodd" clip-rule="evenodd" d="M6.66667 6.66663C6.29848 6.66663 6 6.96511 6 7.33329V11.3333C6 11.7015 6.29848 12 6.66667 12C7.03485 12 7.33333 11.7015 7.33333 11.3333V7.33329C7.33333 6.96511 7.03485 6.66663 6.66667 6.66663Z" fill="#9CA3AF"/>
<path fill-rule="evenodd" clip-rule="evenodd" d="M9.33073 6.66663C8.96254 6.66663 8.66406 6.96511 8.66406 7.33329V11.3333C8.66406 11.7015 8.96254 12 9.33073 12C9.69892 12 9.9974 11.7015 9.9974 11.3333V7.33329C9.9974 6.96511 9.69892 6.66663 9.33073 6.66663Z" fill="#9CA3AF"/>
</g>
</svg>
