<svg width="48" height="48" viewBox="0 0 48 48" fill="none" xmlns="http://www.w3.org/2000/svg">
<rect width="48" height="48" rx="24" fill="#F1CB68" fill-opacity="0.1"/>
<mask id="mask0_893_19062" style="mask-type:luminance" maskUnits="userSpaceOnUse" x="12" y="12" width="24" height="24">
<path d="M12 12H36V36H12V12Z" fill="white"/>
</mask>
<g mask="url(#mask0_893_19062)">
<path d="M25.7728 17.1467H18.6625C18.417 17.1467 18.2075 17.2177 18.034 17.3597C17.8604 17.5017 17.7737 17.6731 17.7737 17.874V29.5103C17.7737 29.7112 17.8604 29.8826 18.034 30.0246C18.2075 30.1666 18.417 30.2376 18.6625 30.2376H29.328C29.5734 30.2376 29.7829 30.1666 29.9565 30.0246C30.13 29.8826 30.2168 29.7112 30.2168 29.5103V20.783H31.1055L30.4771 21.2973L25.1443 16.9337L25.7728 16.4194V17.1467ZM25.7728 15.6921C25.8312 15.6921 25.889 15.6968 25.9462 15.7061C26.0035 15.7154 26.059 15.7292 26.113 15.7475C26.1669 15.7658 26.2181 15.7882 26.2666 15.8147C26.3151 15.8412 26.36 15.8714 26.4013 15.9052L31.734 20.2688C31.7753 20.3026 31.8122 20.3393 31.8446 20.379C31.877 20.4187 31.9044 20.4606 31.9267 20.5047C31.949 20.5489 31.9659 20.5943 31.9772 20.6412C31.9887 20.688 31.9944 20.7353 31.9944 20.783V29.5103C31.9944 30.1128 31.7341 30.627 31.2134 31.0531C30.6927 31.4791 30.0643 31.6921 29.328 31.6921H18.6625C17.9262 31.6921 17.2977 31.4791 16.7771 31.0531C16.2564 30.6271 15.9961 30.1128 15.9961 29.5103V17.874C15.9961 17.2715 16.2564 16.7572 16.7771 16.3312C17.2977 15.9052 17.9262 15.6921 18.6625 15.6921H25.7728Z" fill="#D4AF37"/>
<path fill-rule="evenodd" clip-rule="evenodd" d="M25.7755 15.6921C25.2846 15.6921 24.8867 16.0178 24.8867 16.4194V20.783C24.8867 20.8069 24.8881 20.8306 24.891 20.8543C24.8939 20.878 24.8981 20.9016 24.9038 20.9249C24.9095 20.9483 24.9165 20.9714 24.925 20.9942C24.9334 21.017 24.9432 21.0394 24.9544 21.0614C24.9655 21.0834 24.9779 21.1049 24.9917 21.1259C25.0054 21.1469 25.0203 21.1673 25.0365 21.1871C25.0527 21.2069 25.07 21.226 25.0885 21.2444C25.1069 21.2628 25.1265 21.2805 25.147 21.2973C25.1676 21.3141 25.1892 21.3301 25.2117 21.3452C25.2342 21.3603 25.2575 21.3745 25.2817 21.3878C25.3059 21.401 25.3309 21.4132 25.3565 21.4244C25.3822 21.4357 25.4085 21.4458 25.4354 21.455C25.4623 21.4641 25.4897 21.4721 25.5175 21.479C25.5454 21.4859 25.5736 21.4917 25.6021 21.4963C25.6307 21.501 25.6594 21.5045 25.6884 21.5068C25.7174 21.5092 25.7464 21.5103 25.7755 21.5103H31.1083C31.5991 21.5103 31.9971 21.1847 31.9971 20.783C31.9971 20.3814 31.5991 20.0558 31.1083 20.0558H26.6643V16.4194C26.6643 16.0178 26.2664 15.6921 25.7755 15.6921Z" fill="#D4AF37"/>
<path fill-rule="evenodd" clip-rule="evenodd" d="M19.5508 24.4196C19.5508 24.8213 19.9487 25.1469 20.4396 25.1469H27.5499C28.0407 25.1469 28.4387 24.8213 28.4387 24.4196C28.4387 24.0179 28.0407 23.6923 27.5499 23.6923H20.4396C19.9487 23.6923 19.5508 24.0179 19.5508 24.4196Z" fill="#D4AF37"/>
<path fill-rule="evenodd" clip-rule="evenodd" d="M19.5508 27.3284C19.5508 27.7301 19.9487 28.0557 20.4396 28.0557H27.5499C28.0407 28.0557 28.4387 27.7301 28.4387 27.3284C28.4387 26.9267 28.0407 26.6011 27.5499 26.6011H20.4396C19.9487 26.6011 19.5508 26.9267 19.5508 27.3284Z" fill="#D4AF37"/>
<path fill-rule="evenodd" clip-rule="evenodd" d="M19.5508 21.5104C19.5508 21.9121 19.9487 22.2377 20.4396 22.2377H22.2172C22.708 22.2377 23.1059 21.9121 23.1059 21.5104C23.1059 21.1088 22.708 20.7831 22.2172 20.7831H20.4396C19.9487 20.7831 19.5508 21.1088 19.5508 21.5104Z" fill="#D4AF37"/>
</g>
</svg>
