<svg width="16" height="16" viewBox="0 0 16 16" fill="none" xmlns="http://www.w3.org/2000/svg">
<mask id="mask0_3137_7283" style="mask-type:luminance" maskUnits="userSpaceOnUse" x="0" y="0" width="16" height="16">
<path d="M0 0H15.1422V15.2171H0V0Z" fill="white"/>
</mask>
<g mask="url(#mask0_3137_7283)">
<path fill-rule="evenodd" clip-rule="evenodd" d="M7.57233 0.953125C7.22388 0.953125 6.94141 1.237 6.94141 1.58717V13.6291C6.94141 13.9793 7.22388 14.2632 7.57233 14.2632C7.92078 14.2632 8.20326 13.9793 8.20326 13.6291V1.58717C8.20326 1.237 7.92078 0.953125 7.57233 0.953125Z" fill="#F1CB68"/>
<path fill-rule="evenodd" clip-rule="evenodd" d="M6.4212 4.74075H11.1531C11.5016 4.74075 11.7841 4.45688 11.7841 4.1067C11.7841 3.75653 11.5016 3.47266 11.1531 3.47266H6.4212C5.65497 3.47266 4.99705 3.71106 4.44745 4.18787C3.8705 4.6884 3.58203 5.29993 3.58203 6.02247C3.58203 6.745 3.8705 7.35653 4.44745 7.85707C4.99705 8.33387 5.65496 8.57228 6.4212 8.57228H9.57582C10.0292 8.57228 10.4122 8.70795 10.725 8.97929C11.0104 9.22691 11.1531 9.51848 11.1531 9.854C11.1531 10.1895 11.0104 10.4811 10.725 10.7287C10.4122 11 10.0292 11.1357 9.57582 11.1357H4.21296C3.86451 11.1357 3.58203 11.4196 3.58203 11.7698C3.58203 12.1199 3.86451 12.4038 4.21296 12.4038H9.57582C10.3421 12.4038 11 12.1654 11.5496 11.6886C12.1265 11.1881 12.415 10.5765 12.415 9.854C12.415 9.13146 12.1265 8.51993 11.5496 8.0194C11 7.54259 10.3421 7.30418 9.57582 7.30418H6.4212C5.96785 7.30418 5.58479 7.16851 5.27202 6.89717C4.9866 6.64955 4.84388 6.35798 4.84388 6.02247C4.84388 5.68696 4.9866 5.39539 5.27202 5.14776C5.58479 4.87642 5.96785 4.74075 6.4212 4.74075Z" fill="#F1CB68"/>
</g>
</svg>
