<svg width="16" height="16" viewBox="0 0 16 16" fill="none" xmlns="http://www.w3.org/2000/svg">
<mask id="mask0_893_25790" style="mask-type:luminance" maskUnits="userSpaceOnUse" x="0" y="0" width="16" height="16">
<path d="M0 0H16V16H0V0Z" fill="white"/>
</mask>
<g mask="url(#mask0_893_25790)">
<path fill-rule="evenodd" clip-rule="evenodd" d="M1.9987 9.33334C1.63051 9.33334 1.33203 9.63182 1.33203 10V12.6667C1.33203 13.219 1.52729 13.6904 1.91782 14.0809C2.30834 14.4714 2.77974 14.6667 3.33203 14.6667H12.6654C13.2177 14.6667 13.6891 14.4714 14.0796 14.0809C14.4701 13.6904 14.6654 13.219 14.6654 12.6667V10C14.6654 9.63182 14.3669 9.33334 13.9987 9.33334C13.6305 9.33334 13.332 9.63182 13.332 10V12.6667C13.332 12.8508 13.2669 13.0079 13.1368 13.1381C13.0066 13.2683 12.8495 13.3333 12.6654 13.3333H3.33203C3.14793 13.3333 2.9908 13.2683 2.86063 13.1381C2.73045 13.0079 2.66537 12.8508 2.66537 12.6667V10C2.66537 9.63182 2.36689 9.33334 1.9987 9.33334Z" fill="#9CA3AF"/>
<path fill-rule="evenodd" clip-rule="evenodd" d="M11.8047 6.19532C11.5444 5.93497 11.1223 5.93497 10.8619 6.19532L7.99999 9.05725L5.13807 6.19532C4.87772 5.93497 4.45561 5.93497 4.19526 6.19532C3.93491 6.45567 3.93491 6.87778 4.19526 7.13813L7.52859 10.4715C7.55955 10.5024 7.59322 10.5301 7.62962 10.5544C7.66602 10.5787 7.70444 10.5992 7.74488 10.616C7.78532 10.6327 7.827 10.6454 7.86994 10.6539C7.91287 10.6625 7.95622 10.6667 7.99999 10.6667C8.04377 10.6667 8.08712 10.6625 8.13006 10.6539C8.17299 10.6454 8.21468 10.6327 8.25513 10.616C8.29557 10.5992 8.33398 10.5787 8.37038 10.5544C8.40677 10.5301 8.44045 10.5024 8.47141 10.4715L11.8047 7.13813C12.0651 6.87778 12.0651 6.45567 11.8047 6.19532Z" fill="#9CA3AF"/>
<path fill-rule="evenodd" clip-rule="evenodd" d="M7.9987 1.33334C7.63051 1.33334 7.33203 1.63182 7.33203 2.00001V10C7.33203 10.3682 7.63051 10.6667 7.9987 10.6667C8.36689 10.6667 8.66537 10.3682 8.66537 10V2.00001C8.66537 1.63182 8.36689 1.33334 7.9987 1.33334Z" fill="#9CA3AF"/>
</g>
</svg>
