<svg width="18" height="18" viewBox="0 0 18 18" fill="none" xmlns="http://www.w3.org/2000/svg">
<mask id="mask0_3137_7343" style="mask-type:luminance" maskUnits="userSpaceOnUse" x="0" y="0" width="18" height="18">
<path d="M0 0H17.5403V17.6271H0V0Z" fill="white"/>
</mask>
<g mask="url(#mask0_3137_7343)">
<path d="M13.885 2.9375H3.6531C2.84583 2.9375 2.19141 3.59516 2.19141 4.40643V14.6889C2.19141 15.5002 2.84583 16.1578 3.6531 16.1578H13.885C14.6922 16.1578 15.3466 15.5002 15.3466 14.6889V4.40643C15.3466 3.59516 14.6922 2.9375 13.885 2.9375Z" stroke="#F1CB68" stroke-width="1.66667" stroke-linejoin="round"/>
<path fill-rule="evenodd" clip-rule="evenodd" d="M11.6918 0.734375C11.2882 0.734375 10.9609 1.06321 10.9609 1.46884V4.40669C10.9609 4.81232 11.2882 5.14116 11.6918 5.14116C12.0954 5.14116 12.4226 4.81232 12.4226 4.40669V1.46884C12.4226 1.06321 12.0954 0.734375 11.6918 0.734375Z" fill="#F1CB68"/>
<path fill-rule="evenodd" clip-rule="evenodd" d="M5.84413 0.734375C5.4405 0.734375 5.11328 1.06321 5.11328 1.46884V4.40669C5.11328 4.81232 5.4405 5.14116 5.84413 5.14116C6.24776 5.14116 6.57497 4.81232 6.57497 4.40669V1.46884C6.57497 1.06321 6.24776 0.734375 5.84413 0.734375Z" fill="#F1CB68"/>
<path fill-rule="evenodd" clip-rule="evenodd" d="M1.46094 7.34384C1.46094 7.74947 1.78815 8.0783 2.19178 8.0783H15.347C15.7506 8.0783 16.0778 7.74947 16.0778 7.34384C16.0778 6.93821 15.7506 6.60938 15.347 6.60938H2.19178C1.78815 6.60938 1.46094 6.93821 1.46094 7.34384Z" fill="#F1CB68"/>
</g>
</svg>
