<svg width="16" height="16" viewBox="0 0 16 16" fill="none" xmlns="http://www.w3.org/2000/svg">
<mask id="mask0_893_25784" style="mask-type:luminance" maskUnits="userSpaceOnUse" x="0" y="0" width="16" height="16">
<path d="M0 0H16V16H0V0Z" fill="white"/>
</mask>
<g mask="url(#mask0_893_25784)">
<path d="M0.070382 7.70189C0.192416 7.45782 0.367697 7.15886 0.596224 6.80502C1.0485 6.10471 1.54875 5.46217 2.09698 4.87741C2.87418 4.04839 3.69631 3.39469 4.56337 2.91631C5.67054 2.30546 6.81608 2.00003 8 2.00003C9.18392 2.00003 10.3295 2.30546 11.4367 2.91631C12.3037 3.39469 13.1258 4.04838 13.9031 4.87741C14.4513 5.46217 14.9515 6.10471 15.4038 6.80502C15.6323 7.15886 15.8076 7.45782 15.9297 7.70189C15.9528 7.74817 15.9703 7.7965 15.9822 7.84687C15.994 7.89723 16 7.94828 16 8.00003C16 8.05178 15.994 8.10284 15.9822 8.1532C15.9703 8.20356 15.9528 8.25189 15.9297 8.29818C15.8076 8.54224 15.6323 8.8412 15.4038 9.19505C14.9515 9.89535 14.4513 10.5379 13.9031 11.1227C13.1259 11.9517 12.3037 12.6054 11.4367 13.0838C10.3295 13.6946 9.18392 14 8 14C6.81638 14 5.67111 13.6947 4.56419 13.0842C3.69725 12.606 2.87521 11.9526 2.09808 11.1238C1.5498 10.5392 1.04946 9.89666 0.59707 9.19636C0.368498 8.84253 0.192959 8.54318 0.070454 8.29832C0.0473113 8.25203 0.0297233 8.20356 0.017834 8.1532C0.00594467 8.10284 0 8.05178 0 8.00003C0 7.94828 0.00594467 7.89722 0.017834 7.84686C0.0297233 7.7965 0.0472393 7.74817 0.070382 7.70189ZM1.26295 8.29818L0.666667 8.00003L1.26295 7.70189C1.36363 7.90311 1.51494 8.16001 1.71704 8.47287C2.12597 9.10589 2.57718 9.68553 3.07067 10.2118C3.75172 10.9381 4.46422 11.5064 5.20816 11.9167C6.11466 12.4167 7.04527 12.6667 8 12.6667C8.95497 12.6667 9.88583 12.4166 10.7926 11.9163C11.5366 11.5058 12.2491 10.9373 12.9303 10.2107C13.4237 9.6844 13.8749 9.10471 14.2838 8.47168C14.4858 8.15886 14.6369 7.90227 14.7371 7.70189L15.3334 8.00003L14.7371 8.29818C14.6369 8.0978 14.4858 7.8412 14.2838 7.52838C13.8749 6.89535 13.4237 6.31567 12.9303 5.78933C12.2491 5.06279 11.5366 4.49426 10.7926 4.08375C9.88583 3.58349 8.95497 3.33336 8 3.33336C7.04502 3.33336 6.11418 3.58349 5.20747 4.08375C4.46341 4.49426 3.75082 5.06279 3.06969 5.78933C2.57625 6.31567 2.12511 6.89535 1.71628 7.52838C1.51425 7.8412 1.36314 8.0978 1.26295 8.29818Z" fill="#9CA3AF"/>
<path d="M8 10C9.10457 10 10 9.10457 10 8C10 6.89543 9.10457 6 8 6C6.89543 6 6 6.89543 6 8C6 9.10457 6.89543 10 8 10Z" stroke="#9CA3AF" stroke-width="1.33333"/>
</g>
</svg>
