<svg width="40" height="40" viewBox="0 0 40 40" fill="none" xmlns="http://www.w3.org/2000/svg">
<circle cx="20" cy="20" r="20" fill="#D4AF37" fill-opacity="0.2"/>
<path d="M21.15 28C21.0346 28.2021 20.8681 28.3698 20.6668 28.4864C20.4656 28.6029 20.2366 28.6643 20.0033 28.6643C19.77 28.6643 19.5409 28.6029 19.3397 28.4864C19.1385 28.3698 18.972 28.2021 18.8566 28M25.3333 18C25.3333 16.6739 24.8066 15.4021 23.8689 14.4645C22.9313 13.5268 21.6594 13 20.3333 13C19.0072 13 17.7353 13.5268 16.7977 14.4645C15.86 15.4021 15.3333 16.6739 15.3333 18C15.3333 21.699 14.126 23.3023 13.3333 24C13.2037 24.1482 13.1181 24.3293 13.0863 24.5231C13.0545 24.7169 13.0778 24.9159 13.1535 25.097C13.2292 25.2782 13.3543 25.4343 13.5145 25.5479C13.6746 25.6615 13.8632 25.7281 14.058 25.74H26.608C26.8028 25.7281 26.9914 25.6615 27.1515 25.5479C27.3117 25.4343 27.4368 25.2782 27.5125 25.097C27.5882 24.9159 27.6115 24.7169 27.5797 24.5231C27.5479 24.3293 27.4623 24.1482 27.3326 24C26.54 23.3023 25.3333 21.699 25.3333 18Z" stroke="#D4AF37" stroke-width="1.5" stroke-linecap="round" stroke-linejoin="round"/>
</svg>

