<svg width="19" height="18" viewBox="0 0 19 18" fill="none" xmlns="http://www.w3.org/2000/svg">
<mask id="mask0_3137_8298" style="mask-type:luminance" maskUnits="userSpaceOnUse" x="0" y="0" width="19" height="18">
<path d="M0 0H18.1653V17.8049H0V0Z" fill="white"/>
</mask>
<g mask="url(#mask0_3137_8298)">
<path fill-rule="evenodd" clip-rule="evenodd" d="M2.27251 1.48438C1.8545 1.48438 1.51562 1.81653 1.51562 2.22624V15.5799C1.51562 15.6286 1.52047 15.6769 1.53017 15.7247C1.53986 15.7724 1.55422 15.8188 1.57324 15.8638C1.59226 15.9088 1.61557 15.9516 1.64318 15.9921C1.67079 16.0326 1.70217 16.07 1.73731 16.1045C1.77245 16.1389 1.81069 16.1697 1.85201 16.1968C1.89333 16.2238 1.93695 16.2467 1.98286 16.2653C2.02878 16.2839 2.07611 16.298 2.12485 16.3075C2.17359 16.317 2.22282 16.3217 2.27251 16.3217H15.8965C16.3145 16.3217 16.6534 15.9896 16.6534 15.5799C16.6534 15.1702 16.3145 14.8381 15.8965 14.8381H3.0294V2.22624C3.0294 1.81653 2.69053 1.48438 2.27251 1.48438Z" fill="#F1CB68"/>
<path fill-rule="evenodd" clip-rule="evenodd" d="M13.6241 5.9375C13.2061 5.9375 12.8672 6.26965 12.8672 6.67937V12.6143C12.8672 13.024 13.2061 13.3562 13.6241 13.3562C14.0421 13.3562 14.381 13.024 14.381 12.6143V6.67937C14.381 6.26965 14.0421 5.9375 13.6241 5.9375Z" fill="#F1CB68"/>
<path fill-rule="evenodd" clip-rule="evenodd" d="M9.84283 2.96875C9.42481 2.96875 9.08594 3.3009 9.08594 3.71062V12.6131C9.08594 13.0227 9.42481 13.3549 9.84283 13.3549C10.2608 13.3549 10.5997 13.0227 10.5997 12.6131V3.71062C10.5997 3.3009 10.2608 2.96875 9.84283 2.96875Z" fill="#F1CB68"/>
<path fill-rule="evenodd" clip-rule="evenodd" d="M6.05767 9.64453C5.63966 9.64453 5.30078 9.97668 5.30078 10.3864V12.612C5.30078 13.0217 5.63966 13.3539 6.05767 13.3539C6.47568 13.3539 6.81456 13.0217 6.81456 12.612V10.3864C6.81456 9.97668 6.47568 9.64453 6.05767 9.64453Z" fill="#F1CB68"/>
</g>
</svg>
