<svg width="20" height="20" viewBox="0 0 20 20" fill="none" xmlns="http://www.w3.org/2000/svg">
<path d="M2.5 13.3333V10C2.5 7.34784 3.55357 4.8043 5.42893 2.92893C7.3043 1.05357 9.84784 0 12.5 0C15.1522 0 17.6957 1.05357 19.5711 2.92893C21.4464 4.8043 22.5 7.34784 22.5 10V13.3333" stroke="currentColor" stroke-width="1.5" stroke-linecap="round" stroke-linejoin="round" transform="translate(-2.5 0) scale(1 1)"/>
<path d="M19.1667 17.5C19.1667 18.163 18.9033 18.7989 18.4345 19.2678C17.9656 19.7366 17.3297 20 16.6667 20H15.8333C15.1703 20 14.5344 19.7366 14.0655 19.2678C13.5967 18.7989 13.3333 18.163 13.3333 17.5V15C13.3333 14.337 13.5967 13.7011 14.0655 13.2322C14.5344 12.7634 15.1703 12.5 15.8333 12.5H19.1667V17.5ZM0.833333 17.5C0.833333 18.163 1.09672 18.7989 1.56555 19.2678C2.03438 19.7366 2.67029 20 3.33333 20H4.16667C4.82971 20 5.46562 19.7366 5.93445 19.2678C6.40328 18.7989 6.66667 18.163 6.66667 17.5V15C6.66667 14.337 6.40328 13.7011 5.93445 13.2322C5.46562 12.7634 4.82971 12.5 4.16667 12.5H0.833333V17.5Z" stroke="currentColor" stroke-width="1.5" stroke-linecap="round" stroke-linejoin="round"/>
</svg>

