<svg width="29" height="29" viewBox="0 0 29 29" fill="none" xmlns="http://www.w3.org/2000/svg">
<path d="M0 14.1053C0 6.31514 6.30412 0 14.0806 0C21.8572 0 28.1613 6.31514 28.1613 14.1053C28.1613 21.8954 21.8572 28.2105 14.0806 28.2105C6.30412 28.2105 0 21.8954 0 14.1053ZM14.0806 0.881579C6.79015 0.881579 0.88004 6.80202 0.88004 14.1053C0.88004 21.4085 6.79015 27.3289 14.0806 27.3289C21.3712 27.3289 27.2813 21.4085 27.2813 14.1053C27.2813 6.80202 21.3712 0.881579 14.0806 0.881579Z" fill="#F1CB68"/>
<mask id="mask0_3141_8442" style="mask-type:luminance" maskUnits="userSpaceOnUse" x="7" y="7" width="15" height="15">
<path d="M7.03906 7.05273H21.1197V21.158H7.03906V7.05273Z" fill="white"/>
</mask>
<g mask="url(#mask0_3141_8442)">
<path d="M19.9085 20.2764H19.3585V7.71392C19.3585 7.34875 19.063 7.05273 18.6985 7.05273H9.45804C9.09351 7.05273 8.79801 7.34875 8.79801 7.71392V20.2764H8.24798C8.06573 20.2764 7.91797 20.4244 7.91797 20.607V21.158H20.2385V20.607C20.2385 20.4244 20.0908 20.2764 19.9085 20.2764ZM11.4381 9.14648C11.4381 8.96392 11.5859 8.81589 11.7681 8.81589H12.8682C13.0504 8.81589 13.1982 8.96392 13.1982 9.14648V10.2485C13.1982 10.431 13.0504 10.5791 12.8682 10.5791H11.7681C11.5859 10.5791 11.4381 10.431 11.4381 10.2485V9.14648ZM11.4381 11.7912C11.4381 11.6087 11.5859 11.4606 11.7681 11.4606H12.8682C13.0504 11.4606 13.1982 11.6087 13.1982 11.7912V12.8932C13.1982 13.0758 13.0504 13.2238 12.8682 13.2238H11.7681C11.5859 13.2238 11.4381 13.0758 11.4381 12.8932V11.7912ZM12.8682 15.8685H11.7681C11.5859 15.8685 11.4381 15.7205 11.4381 15.5379V14.436C11.4381 14.2534 11.5859 14.1054 11.7681 14.1054H12.8682C13.0504 14.1054 13.1982 14.2534 13.1982 14.436V15.5379C13.1982 15.7205 13.0504 15.8685 12.8682 15.8685ZM14.9583 20.2764H13.1982V17.9623C13.1982 17.7797 13.346 17.6317 13.5282 17.6317H14.6283C14.8105 17.6317 14.9583 17.7797 14.9583 17.9623V20.2764ZM16.7184 15.5379C16.7184 15.7205 16.5706 15.8685 16.3884 15.8685H15.2883C15.1061 15.8685 14.9583 15.7205 14.9583 15.5379V14.436C14.9583 14.2534 15.1061 14.1054 15.2883 14.1054H16.3884C16.5706 14.1054 16.7184 14.2534 16.7184 14.436V15.5379ZM16.7184 12.8932C16.7184 13.0758 16.5706 13.2238 16.3884 13.2238H15.2883C15.1061 13.2238 14.9583 13.0758 14.9583 12.8932V11.7912C14.9583 11.6087 15.1061 11.4606 15.2883 11.4606H16.3884C16.5706 11.4606 16.7184 11.6087 16.7184 11.7912V12.8932ZM16.7184 10.2485C16.7184 10.431 16.5706 10.5791 16.3884 10.5791H15.2883C15.1061 10.5791 14.9583 10.431 14.9583 10.2485V9.14648C14.9583 8.96392 15.1061 8.81589 15.2883 8.81589H16.3884C16.5706 8.81589 16.7184 8.96392 16.7184 9.14648V10.2485Z" fill="#F1CB68"/>
</g>
</svg>
