<svg width="16" height="16" viewBox="0 0 16 16" fill="none" xmlns="http://www.w3.org/2000/svg">
<g clip-path="url(#clip0_1334_991)">
<mask id="mask0_1334_991" style="mask-type:luminance" maskUnits="userSpaceOnUse" x="0" y="0" width="16" height="16">
<path d="M0 0H16V16H0V0Z" fill="white"/>
</mask>
<g mask="url(#mask0_1334_991)">
<path fill-rule="evenodd" clip-rule="evenodd" d="M2.5 6.125C2.22386 6.125 2 6.34886 2 6.625V14C2 14.2761 2.09763 14.5118 2.29289 14.7071C2.48815 14.9024 2.72386 15 3 15H6C6.03283 15 6.06535 14.9968 6.09754 14.9904C6.12975 14.984 6.16101 14.9745 6.19134 14.962C6.22167 14.9494 6.25049 14.934 6.27778 14.9157C6.30508 14.8975 6.33034 14.8768 6.35355 14.8536C6.37677 14.8304 6.3975 14.8051 6.41574 14.7778C6.43398 14.7505 6.44938 14.7217 6.46194 14.6913C6.4745 14.661 6.48399 14.6298 6.49039 14.5975C6.4968 14.5653 6.5 14.5328 6.5 14.5V10.25C6.5 10.181 6.52441 10.122 6.57322 10.0732C6.62204 10.0244 6.68097 10 6.75 10H9.25C9.31903 10 9.37796 10.0244 9.42678 10.0732C9.47559 10.122 9.5 10.181 9.5 10.25V14.5C9.5 14.5328 9.5032 14.5653 9.50961 14.5975C9.51601 14.6298 9.5255 14.661 9.53806 14.6913C9.55062 14.7217 9.56602 14.7505 9.58426 14.7778C9.6025 14.8051 9.62323 14.8304 9.64645 14.8536C9.66966 14.8768 9.69492 14.8975 9.72222 14.9157C9.74951 14.934 9.77833 14.9494 9.80866 14.962C9.83899 14.9745 9.87025 14.984 9.90246 14.9904C9.93465 14.9968 9.96717 15 10 15H13C13.2762 15 13.5119 14.9024 13.7071 14.7071C13.9024 14.5118 14 14.2761 14 14V6.625C14 6.34886 13.7762 6.125 13.5 6.125C13.2238 6.125 13 6.34886 13 6.625V14H10.5V10.25C10.5 9.90482 10.378 9.61019 10.1339 9.36611C9.88981 9.12204 9.59518 9 9.25 9H6.75C6.40482 9 6.11019 9.12204 5.86612 9.36612C5.62204 9.61019 5.5 9.90482 5.5 10.25V14H3V6.625C3 6.34886 2.77614 6.125 2.5 6.125Z" fill="#9CA3AF"/>
<path fill-rule="evenodd" clip-rule="evenodd" d="M14.6542 8.36119L8.0099 2.00088C8.00696 2.00066 8.00372 2.00056 8.00016 2.00055C7.99648 2.00054 7.99313 2.00065 7.99011 2.00086L1.34575 8.36119C1.14627 8.55214 0.82976 8.54523 0.63881 8.34575C0.44786 8.14628 0.454773 7.82977 0.65425 7.63881L7.30721 1.27026C7.48413 1.08994 7.71571 1.00004 8.00195 1.00055C8.28735 1.00106 8.51779 1.09111 8.69326 1.2707L10.5 3.00021V2C10.5 1.96717 10.5032 1.93466 10.5096 1.90246C10.516 1.87026 10.5255 1.83899 10.5381 1.80866C10.5506 1.77833 10.566 1.74952 10.5842 1.72222C10.6025 1.69492 10.6232 1.66967 10.6465 1.64645C10.6697 1.62324 10.6949 1.60251 10.7222 1.58427C10.7495 1.56603 10.7783 1.55063 10.8086 1.53806C10.839 1.5255 10.8703 1.51602 10.9025 1.50961C10.9346 1.50321 10.9671 1.5 11 1.5H12.5C12.5329 1.5 12.5654 1.50321 12.5975 1.50961C12.6297 1.51602 12.661 1.5255 12.6914 1.53806C12.7217 1.55063 12.7505 1.56603 12.7778 1.58427C12.8051 1.60251 12.8303 1.62324 12.8535 1.64645C12.8768 1.66967 12.8975 1.69492 12.9158 1.72222C12.934 1.74952 12.9494 1.77833 12.9619 1.80866C12.9745 1.83899 12.984 1.87026 12.9904 1.90246C12.9968 1.93466 13 1.96717 13 2V5.39334L15.3458 7.63881C15.5452 7.82977 15.5522 8.14628 15.3612 8.34575C15.1702 8.54523 14.8538 8.55214 14.6542 8.36119ZM12 2.50001V4.43609L11.5 3.95746V2.50001H12Z" fill="#9CA3AF"/>
</g>
</g>
<defs>
<clipPath id="clip0_1334_991">
<rect width="16" height="16" fill="white"/>
</clipPath>
</defs>
</svg>
