<svg width="19" height="18" viewBox="0 0 19 18" fill="none" xmlns="http://www.w3.org/2000/svg">
<mask id="mask0_3137_8343" style="mask-type:luminance" maskUnits="userSpaceOnUse" x="0" y="0" width="19" height="18">
<path d="M0 0H18.1653V17.8049H0V0Z" fill="white"/>
</mask>
<g mask="url(#mask0_3137_8343)">
<path fill-rule="evenodd" clip-rule="evenodd" d="M14.1705 9.64499H16.6525C17.0705 9.64499 17.4094 9.31284 17.4094 8.90312C17.4094 8.49341 17.0705 8.16126 16.6525 8.16126H13.6249C13.5854 8.16126 13.5462 8.16426 13.5073 8.17027C13.4683 8.17629 13.43 8.18525 13.3924 8.19713C13.3548 8.20902 13.3184 8.22369 13.2832 8.24116C13.248 8.25862 13.2144 8.27867 13.1824 8.30129C13.1503 8.32391 13.1203 8.34883 13.0923 8.37606C13.0642 8.40329 13.0385 8.43248 13.0152 8.46365C12.9917 8.49482 12.971 8.52759 12.9529 8.56194C12.9347 8.59629 12.9194 8.63182 12.9069 8.66853L11.3542 13.234L7.53096 1.99169C7.49922 1.89836 7.45047 1.81454 7.38472 1.74022C7.31895 1.6659 7.24118 1.60674 7.15141 1.56275C7.06164 1.51875 6.96669 1.49326 6.86658 1.48629C6.76646 1.47932 6.66879 1.49139 6.57357 1.52249C6.51783 1.54071 6.46497 1.56495 6.415 1.59522C6.36502 1.6255 6.31927 1.66099 6.27772 1.70171C6.23618 1.74243 6.19996 1.78728 6.16907 1.83627C6.13819 1.88526 6.11345 1.93706 6.09487 1.99169L3.99672 8.16126H1.5147C1.09669 8.16126 0.757812 8.49341 0.757812 8.90312C0.757812 9.31284 1.09669 9.64499 1.5147 9.64499H4.54225C4.58172 9.64499 4.62096 9.64198 4.65994 9.63597C4.69894 9.62995 4.73722 9.621 4.77478 9.60911C4.81234 9.59723 4.84873 9.58256 4.88395 9.56509C4.91917 9.54762 4.95279 9.52758 4.98481 9.50496C5.01683 9.48234 5.04687 9.45741 5.07491 9.43018C5.10295 9.40296 5.12866 9.37376 5.15204 9.34259C5.17543 9.31142 5.1962 9.27866 5.21435 9.24431C5.2325 9.20996 5.24782 9.17443 5.2603 9.13772L6.81292 4.57229L10.6362 15.8145C10.6548 15.8692 10.6795 15.921 10.7104 15.97C10.7413 16.0189 10.7775 16.0638 10.8191 16.1046C10.8606 16.1453 10.9064 16.1808 10.9563 16.211C11.0063 16.2413 11.0592 16.2656 11.1149 16.2838C11.1621 16.2992 11.2103 16.3099 11.2596 16.316C11.3089 16.3221 11.3583 16.3234 11.4079 16.3199C11.4575 16.3165 11.5062 16.3083 11.5541 16.2954C11.6021 16.2826 11.6483 16.2653 11.6927 16.2435C11.7372 16.2217 11.779 16.1959 11.8183 16.166C11.8576 16.1361 11.8935 16.1028 11.9261 16.066C11.9586 16.0292 11.9872 15.9897 12.0118 15.9474C12.0364 15.905 12.0566 15.8608 12.0723 15.8145L14.1705 9.64499Z" fill="#F1CB68"/>
</g>
</svg>
