<svg width="16" height="16" viewBox="0 0 16 16" fill="none" xmlns="http://www.w3.org/2000/svg">
<path d="M8.39203 8.66665L6.8587 10.1933C6.79621 10.2553 6.74662 10.329 6.71277 10.4103C6.67893 10.4915 6.6615 10.5786 6.6615 10.6667C6.6615 10.7547 6.67893 10.8418 6.71277 10.923C6.74662 11.0043 6.79621 11.078 6.8587 11.14C6.92067 11.2025 6.99441 11.2521 7.07565 11.2859C7.15689 11.3198 7.24402 11.3372 7.33203 11.3372C7.42004 11.3372 7.50718 11.3198 7.58842 11.2859C7.66966 11.2521 7.74339 11.2025 7.80536 11.14L10.472 8.47332C10.5327 8.40992 10.5803 8.33515 10.612 8.25332C10.6787 8.09101 10.6787 7.90896 10.612 7.74665C10.5803 7.66482 10.5327 7.59005 10.472 7.52665L7.80536 4.85999C7.74321 4.79783 7.66941 4.74852 7.5882 4.71488C7.50698 4.68124 7.41994 4.66392 7.33203 4.66392C7.24413 4.66392 7.15708 4.68124 7.07586 4.71488C6.99465 4.74852 6.92086 4.79783 6.8587 4.85999C6.79654 4.92214 6.74723 4.99594 6.71359 5.07715C6.67995 5.15837 6.66264 5.24541 6.66264 5.33332C6.66264 5.42122 6.67995 5.50827 6.71359 5.58949C6.74723 5.6707 6.79654 5.74449 6.8587 5.80665L8.39203 7.33332H1.9987C1.82189 7.33332 1.65232 7.40356 1.52729 7.52858C1.40227 7.65361 1.33203 7.82317 1.33203 7.99999C1.33203 8.1768 1.40227 8.34637 1.52729 8.47139C1.65232 8.59641 1.82189 8.66665 1.9987 8.66665H8.39203ZM7.9987 1.33332C6.75276 1.32776 5.53019 1.67146 4.46968 2.32545C3.40916 2.97943 2.55313 3.91752 1.9987 5.03332C1.91913 5.19245 1.90604 5.37667 1.9623 5.54545C2.01856 5.71423 2.13957 5.85375 2.2987 5.93332C2.45783 6.01288 2.64205 6.02598 2.81083 5.96972C2.97961 5.91345 3.11913 5.79245 3.1987 5.63332C3.62016 4.7822 4.26125 4.05906 5.05573 3.53864C5.85021 3.01822 6.76925 2.7194 7.71787 2.67305C8.66649 2.6267 9.61028 2.8345 10.4517 3.27499C11.2931 3.71548 12.0017 4.37267 12.5041 5.17865C13.0065 5.98463 13.2846 6.91015 13.3096 7.85957C13.3346 8.809 13.1057 9.74788 12.6464 10.5792C12.1871 11.4105 11.5141 12.1041 10.6971 12.5883C9.87999 13.0724 8.94844 13.3297 7.9987 13.3333C7.00462 13.3376 6.02947 13.0616 5.18516 12.5368C4.34085 12.0121 3.6616 11.2599 3.22536 10.3667C3.1458 10.2075 3.00628 10.0865 2.8375 10.0303C2.66871 9.974 2.48449 9.98709 2.32536 10.0667C2.16623 10.1462 2.04523 10.2857 1.98897 10.4545C1.93271 10.6233 1.9458 10.8075 2.02536 10.9667C2.55392 12.0303 3.35705 12.9335 4.35168 13.5827C5.34631 14.2319 6.49633 14.6036 7.68278 14.6593C8.86923 14.715 10.049 14.4528 11.1001 13.8997C12.1512 13.3465 13.0355 12.5226 13.6614 11.5132C14.2873 10.5038 14.6322 9.34541 14.6604 8.15799C14.6885 6.97056 14.3989 5.79718 13.8215 4.75921C13.2441 3.72123 12.3999 2.85636 11.3762 2.25406C10.3525 1.65175 9.18645 1.33388 7.9987 1.33332Z" fill="#FF3D3D"/>
</svg>
