<svg width="40" height="40" viewBox="0 0 40 40" fill="none" xmlns="http://www.w3.org/2000/svg">
<path d="M20 0C8.9543 0 0 8.9543 0 20V20.03C0 31.0757 8.92431 40 19.97 40H20C31.0457 40 40 31.0757 40 20.03V20C40 8.9543 31.0757 0 20.03 0H20Z" fill="url(#paint0_linear_489_1141)"/>
<path d="M20 0.5H20.0303C30.7987 0.500147 39.5 9.22955 39.5 20V20.0303C39.4999 30.7987 30.7704 39.5 20 39.5H19.9697C9.2004 39.4999 0.500147 30.7996 0.5 20.0303V20C0.5 9.23044 9.23044 0.5 20 0.5Z" stroke="white" stroke-opacity="0.08"/>
<mask id="mask0_489_1141" style="mask-type:luminance" maskUnits="userSpaceOnUse" x="10" y="10" width="20" height="20">
<path d="M10 10H30V30H10V10Z" fill="white"/>
</mask>
<g mask="url(#mask0_489_1141)">
<mask id="mask1_489_1141" style="mask-type:luminance" maskUnits="userSpaceOnUse" x="10" y="10" width="20" height="20">
<path d="M10 10H30V30H10V10Z" fill="white"/>
</mask>
<g mask="url(#mask1_489_1141)">
<path fill-rule="evenodd" clip-rule="evenodd" d="M19.9993 10C19.5391 10 19.166 10.3731 19.166 10.8333V29.1666C19.166 29.6269 19.5391 30 19.9993 30C20.4596 30 20.8327 29.6269 20.8327 29.1666V10.8333C20.8327 10.3731 20.4596 10 19.9993 10Z" fill="#36D399"/>
<path fill-rule="evenodd" clip-rule="evenodd" d="M17.916 15.0026H24.166C24.6262 15.0026 24.9993 14.6295 24.9993 14.1693C24.9993 13.709 24.6262 13.3359 24.166 13.3359H17.916C16.8805 13.3359 15.9966 13.7021 15.2644 14.4343C14.5321 15.1665 14.166 16.0504 14.166 17.0859C14.166 18.1215 14.5321 19.0054 15.2644 19.7376C15.9966 20.4698 16.8805 20.8359 17.916 20.8359H22.0827C22.658 20.8359 23.149 21.0393 23.5558 21.4461C23.9626 21.8529 24.166 22.344 24.166 22.9193C24.166 23.4946 23.9626 23.9856 23.5558 24.3924C23.149 24.7992 22.658 25.0026 22.0827 25.0026H14.9993C14.5391 25.0026 14.166 25.3757 14.166 25.836C14.166 26.2962 14.5391 26.6693 14.9993 26.6693H22.0827C23.1182 26.6693 24.0021 26.3031 24.7343 25.5709C25.4665 24.8387 25.8326 23.9548 25.8326 22.9193C25.8326 21.8837 25.4665 20.9999 24.7343 20.2676C24.0021 19.5354 23.1182 19.1693 22.0827 19.1693H17.916C17.3407 19.1693 16.8497 18.9659 16.4429 18.5591C16.0361 18.1523 15.8327 17.6612 15.8327 17.0859C15.8327 16.5106 16.0361 16.0196 16.4429 15.6128C16.8497 15.206 17.3407 15.0026 17.916 15.0026Z" fill="#36D399"/>
</g>
</g>
<defs>
<linearGradient id="paint0_linear_489_1141" x1="0" y1="0" x2="42.6024" y2="2.99612" gradientUnits="userSpaceOnUse">
<stop stop-color="#222126"/>
<stop offset="1" stop-color="#111116"/>
</linearGradient>
</defs>
</svg>
