<svg width="18" height="18" viewBox="0 0 18 18" fill="none" xmlns="http://www.w3.org/2000/svg">
<mask id="mask0_3137_7315" style="mask-type:luminance" maskUnits="userSpaceOnUse" x="0" y="0" width="18" height="18">
<path d="M0 0H17.3348V17.4205H0V0Z" fill="white"/>
</mask>
<g mask="url(#mask0_3137_7315)">
<path fill-rule="evenodd" clip-rule="evenodd" d="M13.2171 3.17247C13.5008 2.89068 13.9582 2.89339 14.2386 3.17852C14.519 3.46365 14.5163 3.92323 14.2325 4.20502L4.12062 14.2479C3.83689 14.5297 3.37957 14.527 3.09917 14.2418C2.81877 13.9567 2.82147 13.4972 3.10519 13.2153L13.2171 3.17247Z" fill="#F1CB68"/>
<path d="M4.69633 6.55745C5.69359 6.55745 6.50203 5.75453 6.50203 4.76408C6.50203 3.77362 5.69359 2.9707 4.69633 2.9707C3.69907 2.9707 2.89062 3.77362 2.89062 4.76408C2.89062 5.75453 3.69907 6.55745 4.69633 6.55745Z" stroke="#F1CB68" stroke-width="1.64713"/>
<path d="M12.6416 14.4481C13.6389 14.4481 14.4473 13.6452 14.4473 12.6547C14.4473 11.6642 13.6389 10.8613 12.6416 10.8613C11.6444 10.8613 10.8359 11.6642 10.8359 12.6547C10.8359 13.6452 11.6444 14.4481 12.6416 14.4481Z" stroke="#F1CB68" stroke-width="1.64713"/>
</g>
</svg>
