<svg width="19" height="18" viewBox="0 0 19 18" fill="none" xmlns="http://www.w3.org/2000/svg">
<mask id="mask0_3137_8258" style="mask-type:luminance" maskUnits="userSpaceOnUse" x="0" y="0" width="19" height="18">
<path d="M0 0H18.1653V17.8049H0V0Z" fill="white"/>
</mask>
<g mask="url(#mask0_3137_8258)">
<path fill-rule="evenodd" clip-rule="evenodd" d="M5.75294 1.41758C6.13606 1.25371 6.58218 1.42529 6.74937 1.80081C6.91656 2.17633 6.74151 2.6136 6.35839 2.77747C5.24713 3.25278 4.36275 3.89573 3.70524 4.70632C3.04773 5.51691 2.608 6.50637 2.38603 7.67468C2.16407 8.843 2.21096 9.92127 2.52672 10.9095C2.84247 11.8977 3.43146 12.8096 4.29368 13.6451C5.1559 14.4806 6.09289 15.0475 7.10467 15.3457C8.11645 15.6439 9.21701 15.6775 10.4064 15.4466C11.5957 15.2157 12.6001 14.7734 13.4196 14.1197C14.239 13.4661 14.8848 12.592 15.357 11.4974C15.5198 11.1201 15.9639 10.9435 16.3489 11.1031C16.7339 11.2626 16.914 11.6979 16.7513 12.0753C16.1813 13.3965 15.3892 14.4616 14.3751 15.2706C13.361 16.0795 12.1361 16.6234 10.7005 16.9021C9.26488 17.1808 7.92098 17.1356 6.66879 16.7665C5.41661 16.3975 4.27015 15.7088 3.22941 14.7003C2.18867 13.6917 1.47291 12.576 1.08213 11.3529C0.691345 10.1299 0.629915 8.81326 0.897839 7.40305C1.16576 5.99284 1.70659 4.78614 2.52032 3.78294C3.33406 2.77976 4.4116 1.9913 5.75294 1.41758Z" fill="#F1CB68"/>
<path d="M15.8931 8.90275C15.8931 7.059 15.228 5.48526 13.8979 4.18152C12.5678 2.87779 10.9622 2.22593 9.08111 2.22593L9.08111 1.48406H9.838V8.90275H9.08111V8.16089H16.65V8.90275H15.8931ZM17.4069 8.90275C17.4069 8.95147 17.402 8.99971 17.3923 9.04749C17.3826 9.09526 17.3683 9.14166 17.3493 9.18666C17.3302 9.23166 17.3069 9.27441 17.2793 9.31492C17.2517 9.35542 17.2203 9.39289 17.1852 9.42734C17.1501 9.46178 17.1118 9.49253 17.0705 9.51959C17.0292 9.54666 16.9856 9.56951 16.9396 9.58815C16.8937 9.60679 16.8464 9.62086 16.7977 9.63037C16.7489 9.63987 16.6997 9.64463 16.65 9.64463H9.08111C9.03141 9.64463 8.98219 9.63987 8.93345 9.63037C8.8847 9.62086 8.83737 9.60679 8.79146 9.58815C8.74554 9.56951 8.70192 9.54666 8.6606 9.51959C8.61928 9.49253 8.58105 9.46178 8.54591 9.42734C8.51076 9.39289 8.47939 9.35542 8.45178 9.31492C8.42417 9.27441 8.40085 9.23166 8.38183 9.18666C8.36281 9.14166 8.34846 9.09526 8.33876 9.04749C8.32907 8.99971 8.32422 8.95147 8.32422 8.90275V1.48406C8.32422 1.43535 8.32907 1.3871 8.33876 1.33933C8.34846 1.29155 8.36281 1.24516 8.38183 1.20016C8.40085 1.15515 8.42417 1.1124 8.45178 1.0719C8.47939 1.03139 8.51076 0.99392 8.54591 0.959476C8.58105 0.925031 8.61928 0.894278 8.6606 0.867215C8.70192 0.840152 8.74554 0.8173 8.79146 0.798659C8.83737 0.780018 8.8847 0.765945 8.93345 0.756442C8.98219 0.746939 9.03141 0.742188 9.08111 0.742188C11.3802 0.742188 13.3426 1.53891 14.9683 3.13236C16.594 4.72581 17.4069 6.64928 17.4069 8.90275Z" fill="#F1CB68"/>
</g>
</svg>
