<svg width="40" height="40" viewBox="0 0 40 40" fill="none" xmlns="http://www.w3.org/2000/svg">
<path d="M20 0C8.9543 0 0 8.9543 0 20V20.03C0 31.0757 8.92431 40 19.97 40H20C31.0457 40 40 31.0757 40 20.03V20C40 8.9543 31.0757 0 20.03 0H20Z" fill="url(#paint0_linear_489_1194)"/>
<path d="M20 0.5H20.0303C30.7987 0.500147 39.5 9.22955 39.5 20V20.0303C39.4999 30.7987 30.7704 39.5 20 39.5H19.9697C9.2004 39.4999 0.500147 30.7996 0.5 20.0303V20C0.5 9.23044 9.23044 0.5 20 0.5Z" stroke="white" stroke-opacity="0.08"/>
<mask id="mask0_489_1194" style="mask-type:luminance" maskUnits="userSpaceOnUse" x="10" y="10" width="20" height="20">
<path d="M10 10H30V30H10V10Z" fill="white"/>
</mask>
<g mask="url(#mask0_489_1194)">
<mask id="mask1_489_1194" style="mask-type:luminance" maskUnits="userSpaceOnUse" x="10" y="10" width="20" height="20">
<path d="M10 10H30V30H10V10Z" fill="white"/>
</mask>
<g mask="url(#mask1_489_1194)">
<path fill-rule="evenodd" clip-rule="evenodd" d="M15.2441 15.2438C14.9186 15.5693 14.9186 16.0969 15.2441 16.4223L23.5774 24.7557C23.9028 25.0811 24.4305 25.0811 24.7559 24.7557C25.0814 24.4302 25.0814 23.9026 24.7559 23.5772L16.4226 15.2438C16.0972 14.9184 15.5695 14.9184 15.2441 15.2438Z" fill="#FF6B6B"/>
<path fill-rule="evenodd" clip-rule="evenodd" d="M24.1667 14.9998C23.7064 14.9998 23.3333 15.3729 23.3333 15.8331V23.3331H15.8333C15.3731 23.3331 15 23.7062 15 24.1664C15 24.6267 15.3731 24.9998 15.8333 24.9998H24.1667C24.2214 24.9998 24.2756 24.9944 24.3292 24.9837C24.3829 24.9731 24.435 24.9573 24.4856 24.9363C24.5361 24.9154 24.5841 24.8897 24.6296 24.8593C24.6751 24.8289 24.7172 24.7944 24.7559 24.7557C24.7946 24.717 24.8292 24.6749 24.8596 24.6294C24.89 24.5839 24.9156 24.5359 24.9366 24.4853C24.9575 24.4348 24.9733 24.3827 24.984 24.329C24.9947 24.2753 25 24.2211 25 24.1664V15.8331C25 15.3729 24.6269 14.9998 24.1667 14.9998Z" fill="#FF6B6B"/>
</g>
</g>
<defs>
<linearGradient id="paint0_linear_489_1194" x1="0" y1="0" x2="42.6024" y2="2.99612" gradientUnits="userSpaceOnUse">
<stop stop-color="#222126"/>
<stop offset="1" stop-color="#111116"/>
</linearGradient>
</defs>
</svg>
