<svg width="18" height="18" viewBox="0 0 18 18" fill="none" xmlns="http://www.w3.org/2000/svg">
<mask id="mask0_3137_7369" style="mask-type:luminance" maskUnits="userSpaceOnUse" x="0" y="0" width="18" height="18">
<path d="M0 0H17.5403V17.6271H0V0Z" fill="white"/>
</mask>
<g mask="url(#mask0_3137_7369)">
<path d="M15.2478 13.585L9.40103 3.30251C9.33529 3.18594 9.24557 3.09437 9.13186 3.02778C9.01816 2.9612 8.89551 2.92791 8.76391 2.92791C8.63231 2.92791 8.50966 2.9612 8.39595 3.02778C8.28225 3.09437 8.19296 3.18519 8.12807 3.30025L2.28001 13.585C2.21334 13.701 2.18016 13.8249 2.18045 13.9567C2.18074 14.0885 2.21392 14.2114 2.28 14.3252C2.34608 14.439 2.43613 14.5285 2.55014 14.5937C2.66416 14.6588 2.78673 14.6908 2.91786 14.6896L14.618 14.6895C14.7681 14.6894 14.8921 14.6609 14.9899 14.604C15.0878 14.5471 15.1744 14.4531 15.2496 14.322C15.3249 14.1908 15.3625 14.0685 15.3625 13.9549C15.3624 13.8413 15.3248 13.7189 15.2494 13.5878L15.2478 13.585ZM16.5152 12.8534C16.7211 13.2116 16.8241 13.5787 16.8241 13.9545C16.8242 14.3303 16.7215 14.6974 16.5159 15.0558C16.3102 15.4141 16.0455 15.6874 15.7218 15.8755C15.3981 16.0637 15.0301 16.158 14.618 16.1584H2.93102C2.53761 16.162 2.16988 16.066 1.82783 15.8707C1.4858 15.6753 1.21566 15.4069 1.01742 15.0654C0.819182 14.7238 0.719627 14.3554 0.718756 13.96C0.717885 13.5646 0.815269 13.1967 1.01091 12.8562L6.8564 2.57599C7.05105 2.23082 7.31893 1.95836 7.66005 1.75861C8.00116 1.55886 8.36911 1.45898 8.76391 1.45898C9.1587 1.45898 9.52666 1.55886 9.86777 1.75861C10.2089 1.95835 10.4763 2.23006 10.6701 2.57372L16.5169 12.8562L16.5152 12.8534Z" fill="#F1CB68"/>
<path fill-rule="evenodd" clip-rule="evenodd" d="M8.76991 5.87695C8.36628 5.87695 8.03906 6.20579 8.03906 6.61142V9.54927C8.03906 9.9549 8.36628 10.2837 8.76991 10.2837C9.17354 10.2837 9.50076 9.9549 9.50076 9.54927V6.61142C9.50076 6.20579 9.17354 5.87695 8.76991 5.87695Z" fill="#F1CB68"/>
<path fill-rule="evenodd" clip-rule="evenodd" d="M8.76991 13.2209C8.36628 13.2209 8.03906 12.892 8.03906 12.4864C8.03906 12.0808 8.36628 11.752 8.76991 11.752H8.77722C9.18085 11.752 9.50806 12.0808 9.50806 12.4864C9.50806 12.892 9.18085 13.2209 8.77722 13.2209H8.76991Z" fill="#F1CB68"/>
</g>
</svg>
