<svg width="16" height="16" viewBox="0 0 16 16" fill="none" xmlns="http://www.w3.org/2000/svg">
<mask id="mask0_893_25797" style="mask-type:luminance" maskUnits="userSpaceOnUse" x="0" y="0" width="16" height="16">
<path d="M0 0H16V16H0V0Z" fill="white"/>
</mask>
<g mask="url(#mask0_893_25797)">
<path d="M12 5.33331C13.1046 5.33331 14 4.43788 14 3.33331C14 2.22874 13.1046 1.33331 12 1.33331C10.8954 1.33331 10 2.22874 10 3.33331C10 4.43788 10.8954 5.33331 12 5.33331Z" stroke="#9CA3AF" stroke-width="1.33333"/>
<path d="M4 10C5.10457 10 6 9.10457 6 8C6 6.89543 5.10457 6 4 6C2.89543 6 2 6.89543 2 8C2 9.10457 2.89543 10 4 10Z" stroke="#9CA3AF" stroke-width="1.33333"/>
<path d="M12 14.6667C13.1046 14.6667 14 13.7713 14 12.6667C14 11.5621 13.1046 10.6667 12 10.6667C10.8954 10.6667 10 11.5621 10 12.6667C10 13.7713 10.8954 14.6667 12 14.6667Z" stroke="#9CA3AF" stroke-width="1.33333"/>
<path fill-rule="evenodd" clip-rule="evenodd" d="M5.38972 9.58271C5.0716 9.39734 4.96399 8.98917 5.14936 8.67106C5.33474 8.35294 5.7429 8.24533 6.06102 8.4307L10.6144 11.084C10.9325 11.2694 11.0401 11.6776 10.8547 11.9957C10.6693 12.3138 10.2612 12.4214 9.94305 12.236L5.38972 9.58271Z" fill="#9CA3AF"/>
<path fill-rule="evenodd" clip-rule="evenodd" d="M10.8478 4.004C10.6622 3.686 10.254 3.57865 9.93602 3.76423L5.38935 6.41756C5.07135 6.60314 4.964 7.01137 5.14958 7.32937C5.33515 7.64737 5.74339 7.75472 6.06139 7.56914L10.6081 4.91581C10.926 4.73024 11.0334 4.322 10.8478 4.004Z" fill="#9CA3AF"/>
</g>
</svg>
