<svg width="16" height="16" viewBox="0 0 16 16" fill="none" xmlns="http://www.w3.org/2000/svg">
<g clip-path="url(#clip0_1334_1040)">
<g clip-path="url(#clip1_1334_1040)">
<mask id="mask0_1334_1040" style="mask-type:luminance" maskUnits="userSpaceOnUse" x="0" y="0" width="16" height="16">
<path d="M0 0H16V16H0V0Z" fill="white"/>
</mask>
<g mask="url(#mask0_1334_1040)">
<path fill-rule="evenodd" clip-rule="evenodd" d="M10.8272 5.12197C10.6185 4.94124 10.3027 4.96398 10.122 5.17277L7.00752 8.77068L5.8499 7.63659C5.65265 7.44334 5.33608 7.4466 5.14283 7.64385C4.94959 7.8411 4.95284 8.15768 5.15009 8.35092L6.68759 9.85717C6.69494 9.86436 6.70249 9.87132 6.71026 9.87805C6.73508 9.89953 6.76176 9.91839 6.7903 9.93462C6.81883 9.95085 6.84868 9.96414 6.87984 9.97449C6.91099 9.98485 6.94286 9.99206 6.97544 9.99614C7.00802 10.0002 7.04068 10.0011 7.07342 9.99871C7.10616 9.99635 7.13836 9.99083 7.17002 9.98213C7.20168 9.97342 7.23218 9.96172 7.26154 9.94701C7.29088 9.9323 7.31852 9.91487 7.34443 9.89471C7.37035 9.87456 7.39405 9.85207 7.41553 9.82725L10.878 5.82725C11.0588 5.61846 11.036 5.3027 10.8272 5.12197Z" fill="#9CA3AF"/>
<path d="M14.3838 4.0037C12.9789 3.75171 11.846 3.49121 10.9849 3.22222C10.1498 2.96131 9.08629 2.53913 7.79436 1.95568L8.00016 1.5L8.20595 1.95568C6.91404 2.53913 5.85052 2.96131 5.01539 3.22222C4.15435 3.49121 3.02141 3.75171 1.61656 4.0037L1.52828 3.51156L2.02729 3.54305C1.91554 5.31421 2.14767 6.93444 2.72368 8.40374C3.18786 9.58781 3.86581 10.6529 4.75752 11.599C5.41243 12.2938 6.15221 12.8955 6.97685 13.4039C7.42874 13.6825 7.8321 13.8933 8.18694 14.0362L8.00016 14.5L7.81337 14.0362C8.16821 13.8933 8.57157 13.6825 9.02345 13.4039C9.8481 12.8955 10.5879 12.2938 11.2428 11.599C12.1345 10.6529 12.8124 9.58781 13.2767 8.40374C13.8527 6.93444 14.0848 5.31421 13.9731 3.54305L14.472 3.51156L14.3838 4.0037ZM14.5603 3.01942C14.5876 3.02432 14.6144 3.03146 14.6406 3.04082C14.6667 3.05018 14.6919 3.06165 14.7162 3.07521C14.7404 3.08877 14.7633 3.10425 14.785 3.12163C14.8067 3.13902 14.8268 3.15808 14.8452 3.17882C14.8637 3.19955 14.8804 3.22167 14.8951 3.24518C14.91 3.26869 14.9227 3.29326 14.9334 3.31889C14.9441 3.34452 14.9526 3.37086 14.959 3.39791C14.9653 3.42496 14.9693 3.45235 14.9711 3.48007C15.0921 5.39885 14.8376 7.16173 14.2076 8.76873C13.6964 10.0729 12.9507 11.2449 11.9705 12.2849C11.2552 13.0438 10.4478 13.7005 9.54826 14.2551C9.04814 14.5635 8.59437 14.7997 8.18694 14.9638C8.12702 14.9879 8.06475 15 8.00016 15C7.93555 15 7.87329 14.9879 7.81337 14.9638C7.40595 14.7997 6.95217 14.5635 6.45203 14.2551C5.55248 13.7005 4.74508 13.0438 4.02981 12.2849C3.04964 11.2449 2.30393 10.0729 1.79266 8.76873C1.16267 7.16173 0.908208 5.39885 1.02927 3.48008C1.03102 3.45236 1.03505 3.42497 1.04137 3.39791C1.04768 3.37086 1.05619 3.34452 1.06689 3.31889C1.0776 3.29326 1.09035 3.26869 1.10515 3.24518C1.11995 3.22167 1.13659 3.19955 1.15508 3.17882C1.17356 3.15808 1.19364 3.13902 1.2153 3.12163C1.23697 3.10425 1.25992 3.08877 1.28416 3.07521C1.3084 3.06165 1.3336 3.05018 1.35976 3.04082C1.38591 3.03146 1.41266 3.02432 1.44 3.01942C2.80368 2.7748 3.89607 2.52423 4.71719 2.26771C5.51365 2.01889 6.53937 1.61109 7.79436 1.04432C7.85978 1.01477 7.92837 1 8.00015 1C8.07193 1 8.14053 1.01477 8.20595 1.04432C9.46093 1.61109 10.4867 2.01889 11.2831 2.26771C12.1043 2.52423 13.1967 2.7748 14.5603 3.01942Z" fill="#9CA3AF"/>
</g>
</g>
</g>
<defs>
<clipPath id="clip0_1334_1040">
<rect width="16" height="16" fill="white"/>
</clipPath>
<clipPath id="clip1_1334_1040">
<rect width="16" height="16" fill="white"/>
</clipPath>
</defs>
</svg>
