<svg width="18" height="18" viewBox="0 0 18 18" fill="none" xmlns="http://www.w3.org/2000/svg">
<mask id="mask0_3137_7395" style="mask-type:luminance" maskUnits="userSpaceOnUse" x="0" y="0" width="18" height="18">
<path d="M0 0H17.5403V17.6271H0V0Z" fill="white"/>
</mask>
<g mask="url(#mask0_3137_7395)">
<path fill-rule="evenodd" clip-rule="evenodd" d="M10.9623 13.9555V15.4244C10.9623 15.8301 11.2895 16.1589 11.6932 16.1589C12.0968 16.1589 12.424 15.8301 12.424 15.4244V13.9555C12.424 12.9414 12.0672 12.0759 11.3537 11.3588C10.6402 10.6417 9.77886 10.2832 8.76978 10.2832H4.3847C3.37561 10.2832 2.5143 10.6417 1.80077 11.3588C1.08724 12.0759 0.730469 12.9414 0.730469 13.9555V15.4244C0.730469 15.8301 1.05768 16.1589 1.46132 16.1589C1.86495 16.1589 2.19216 15.8301 2.19216 15.4244V13.9555C2.19216 13.3471 2.40622 12.8277 2.83435 12.3975C3.26246 11.9672 3.77925 11.7521 4.3847 11.7521H8.76978C9.37524 11.7521 9.89202 11.9672 10.3201 12.3975C10.7482 12.8277 10.9623 13.3471 10.9623 13.9555Z" fill="#F1CB68"/>
<path d="M6.28667 8.36789C7.90121 8.36789 9.21006 7.05257 9.21006 5.43004C9.21006 3.80751 7.90121 2.49219 6.28667 2.49219C4.67213 2.49219 3.36328 3.80751 3.36328 5.43004C3.36328 7.05257 4.67213 8.36789 6.28667 8.36789Z" stroke="#F1CB68" stroke-width="1.66667"/>
<path fill-rule="evenodd" clip-rule="evenodd" d="M13.7046 11.8247C13.3137 11.7233 13.0787 11.3227 13.1796 10.9299C13.2805 10.5372 13.6792 10.301 14.07 10.4024C14.8762 10.6116 15.5344 11.0469 16.0445 11.7082C16.5547 12.3695 16.81 13.1188 16.8107 13.9559V15.4248C16.8107 15.8305 16.4834 16.1593 16.0798 16.1593C15.6762 16.1593 15.349 15.8305 15.349 15.4248V13.9559C15.3486 13.4542 15.1954 13.005 14.8893 12.6082C14.5832 12.2114 14.1883 11.9502 13.7046 11.8247Z" fill="#F1CB68"/>
<path fill-rule="evenodd" clip-rule="evenodd" d="M10.984 2.11692C10.8838 2.50987 11.1197 2.90999 11.5107 3.0106C11.9958 3.13542 12.3918 3.39657 12.6988 3.79408C13.0059 4.19158 13.1594 4.64194 13.1594 5.14514C13.1594 5.64834 13.0059 6.0987 12.6988 6.4962C12.3918 6.8937 11.9958 7.15486 11.5107 7.27967C11.1197 7.38029 10.8838 7.7804 10.984 8.17336C11.0841 8.56631 11.4822 8.80331 11.8732 8.70269C12.6817 8.49467 13.3418 8.0594 13.8535 7.3969C14.3652 6.7344 14.6211 5.98381 14.6211 5.14514C14.6211 4.30647 14.3652 3.55588 13.8535 2.89338C13.3418 2.23087 12.6817 1.7956 11.8732 1.58758C11.4822 1.48697 11.0841 1.72396 10.984 2.11692Z" fill="#F1CB68"/>
</g>
</svg>
