<svg width="36" height="36" viewBox="0 0 36 36" fill="none" xmlns="http://www.w3.org/2000/svg">
<path d="M26.1 17.2791H25.218C24.7203 17.2791 24.318 17.6022 24.318 18C24.318 18.3969 24.7203 18.7191 25.218 18.7191H26.1C26.5968 18.7191 27 18.3978 27 18C27 17.6031 26.5959 17.2791 26.1 17.2791ZM18 13.05C17.3494 13.048 16.7048 13.1746 16.1033 13.4227C15.5019 13.6707 14.9554 14.0353 14.4953 14.4953C14.0353 14.9554 13.6707 15.5019 13.4227 16.1033C13.1746 16.7048 13.048 17.3494 13.05 18C13.05 20.7459 15.2541 22.95 18 22.95C20.745 22.95 22.95 20.7459 22.95 18C22.95 15.2541 20.7441 13.05 18 13.05ZM18 21.6C16.0101 21.6 14.4 19.9881 14.4 18C14.4 16.0101 16.0101 14.4 18 14.4C18.9548 14.4 19.8705 14.7793 20.5456 15.4544C21.2207 16.1295 21.6 17.0452 21.6 18C21.6 18.9548 21.2207 19.8705 20.5456 20.5456C19.8705 21.2207 18.9548 21.6 18 21.6ZM11.7 18C11.7 17.6031 11.2959 17.2791 10.8 17.2791H9.9C9.4023 17.2791 9 17.6022 9 18C9 18.3969 9.4023 18.7191 9.9 18.7191H10.8C11.2959 18.7191 11.7 18.3969 11.7 18ZM18 11.7C18.3969 11.7 18.7191 11.2977 18.7191 10.8V9.9C18.7191 9.4023 18.3969 9 18 9C17.6022 9 17.2791 9.4023 17.2791 9.9V10.8C17.2791 11.2977 17.6022 11.7 18 11.7ZM18 24.3C17.6022 24.3 17.2791 24.7023 17.2791 25.2V26.1C17.2791 26.5977 17.6022 27 18 27C18.3969 27 18.7191 26.5977 18.7191 26.1V25.2C18.7191 24.7023 18.3969 24.3 18 24.3ZM24.6285 12.3894C24.9804 12.0375 25.0371 11.5245 24.7563 11.2437C24.4755 10.9629 23.9616 11.0205 23.6115 11.3724L22.9815 12.0015C22.6296 12.3534 22.5729 12.8664 22.8537 13.1472C23.1345 13.428 23.6484 13.3704 23.9994 13.0185L24.6285 12.3894ZM12.0006 22.9797L11.3706 23.6106C11.0187 23.9625 10.962 24.4737 11.2428 24.7545C11.5236 25.0353 12.0375 24.9795 12.3876 24.6276L13.0176 23.9985C13.3695 23.6466 13.4262 23.1336 13.1454 22.8519C12.8646 22.5702 12.3507 22.6296 12.0006 22.9797ZM12.3885 11.3715C12.0375 11.0196 11.5236 10.962 11.2428 11.2428C10.962 11.5236 11.0196 12.0375 11.3697 12.3894L11.9997 13.0185C12.3516 13.3704 12.8637 13.428 13.1445 13.1472C13.4253 12.8664 13.3686 12.3525 13.0176 12.0015L12.3885 11.3715ZM22.9806 23.9994L23.6106 24.6285C23.9625 24.9804 24.4746 25.0362 24.7554 24.7572C25.0362 24.4764 24.9795 23.9625 24.6276 23.6115L23.9985 22.9824C23.6466 22.6305 23.1336 22.5729 22.8519 22.8537C22.5702 23.1345 22.6287 23.6475 22.9806 23.9994Z" fill="white"/>
</svg>
