<svg width="40" height="40" viewBox="0 0 40 40" fill="none" xmlns="http://www.w3.org/2000/svg">
<path d="M20 0C8.9543 0 0 8.9543 0 20V20.03C0 31.0757 8.92431 40 19.97 40H20C31.0457 40 40 31.0757 40 20.03V20C40 8.9543 31.0757 0 20.03 0H20Z" fill="url(#paint0_linear_489_1109)"/>
<path d="M20 0.5H20.0303C30.7987 0.500147 39.5 9.22955 39.5 20V20.0303C39.4999 30.7987 30.7704 39.5 20 39.5H19.9697C9.2004 39.4999 0.500147 30.7996 0.5 20.0303V20C0.5 9.23044 9.23044 0.5 20 0.5Z" stroke="white" stroke-opacity="0.08"/>
<mask id="mask0_489_1109" style="mask-type:luminance" maskUnits="userSpaceOnUse" x="10" y="10" width="20" height="20">
<path d="M10 10H30V30H10V10Z" fill="white"/>
</mask>
<g mask="url(#mask0_489_1109)">
<mask id="mask1_489_1109" style="mask-type:luminance" maskUnits="userSpaceOnUse" x="10" y="10" width="20" height="20">
<path d="M10 10H30V30H10V10Z" fill="white"/>
</mask>
<g mask="url(#mask1_489_1109)">
<path fill-rule="evenodd" clip-rule="evenodd" d="M23.5774 15.2438C23.9028 14.9184 24.4305 14.9184 24.7559 15.2438C25.0814 15.5693 25.0814 16.0969 24.7559 16.4223L16.4226 24.7557C16.0972 25.0811 15.5695 25.0811 15.2441 24.7557C14.9186 24.4302 14.9186 23.9026 15.2441 23.5772L23.5774 15.2438Z" fill="#F1CB68"/>
<path fill-rule="evenodd" clip-rule="evenodd" d="M15 15.8331C15 16.2933 15.3731 16.6664 15.8333 16.6664H23.3333V24.1664C23.3333 24.6267 23.7064 24.9998 24.1667 24.9998C24.6269 24.9998 25 24.6267 25 24.1664V15.8331C25 15.7784 24.9947 15.7242 24.984 15.6705C24.9733 15.6168 24.9575 15.5647 24.9366 15.5142C24.9156 15.4636 24.89 15.4156 24.8596 15.3701C24.8292 15.3246 24.7946 15.2825 24.7559 15.2438C24.7172 15.2051 24.6751 15.1706 24.6296 15.1402C24.5841 15.1098 24.5361 15.0841 24.4856 15.0632C24.435 15.0422 24.3829 15.0264 24.3292 15.0158C24.2756 15.0051 24.2214 14.9998 24.1667 14.9998H15.8333C15.3731 14.9998 15 15.3729 15 15.8331Z" fill="#F1CB68"/>
</g>
</g>
<defs>
<linearGradient id="paint0_linear_489_1109" x1="0" y1="0" x2="42.6024" y2="2.99612" gradientUnits="userSpaceOnUse">
<stop stop-color="#222126"/>
<stop offset="1" stop-color="#111116"/>
</linearGradient>
</defs>
</svg>
