<svg width="20" height="20" viewBox="0 0 20 20" fill="none" xmlns="http://www.w3.org/2000/svg">
<path d="M14.1667 17.5V15.8333C14.1667 14.9493 13.8155 14.1014 13.1904 13.4763C12.5652 12.8512 11.7174 12.5 10.8333 12.5H4.16667C3.28262 12.5 2.43476 12.8512 1.80964 13.4763C1.18453 14.1014 0.833336 14.9493 0.833336 15.8333V17.5" stroke="currentColor" stroke-width="1.5" stroke-linecap="round" stroke-linejoin="round"/>
<path d="M7.50001 9.16667C9.34096 9.16667 10.8333 7.67428 10.8333 5.83333C10.8333 3.99238 9.34096 2.5 7.50001 2.5C5.65906 2.5 4.16667 3.99238 4.16667 5.83333C4.16667 7.67428 5.65906 9.16667 7.50001 9.16667Z" stroke="currentColor" stroke-width="1.5" stroke-linecap="round" stroke-linejoin="round"/>
<path d="M19.1667 17.5V15.8333C19.1661 15.0948 18.9204 14.3773 18.4679 13.7936C18.0154 13.2099 17.3819 12.793 16.6667 12.6083" stroke="currentColor" stroke-width="1.5" stroke-linecap="round" stroke-linejoin="round"/>
<path d="M13.3333 2.60834C14.0503 2.79192 14.6858 3.20892 15.1396 3.79359C15.5935 4.37827 15.8398 5.09736 15.8398 5.8375C15.8398 6.57765 15.5935 7.29674 15.1396 7.88141C14.6858 8.46609 14.0503 8.88309 13.3333 9.06667" stroke="currentColor" stroke-width="1.5" stroke-linecap="round" stroke-linejoin="round"/>
</svg>

