<svg width="32" height="32" viewBox="0 0 32 32" fill="none" xmlns="http://www.w3.org/2000/svg">
<path d="M28 12H4C2.89543 12 2 12.8954 2 14V26C2 27.1046 2.89543 28 4 28H28C29.1046 28 30 27.1046 30 26V14C30 12.8954 29.1046 12 28 12Z" stroke="currentColor" stroke-width="2" stroke-linecap="round" stroke-linejoin="round"/>
<path d="M8 12V8C8 6.93913 8.42143 5.92172 9.17157 5.17157C9.92172 4.42143 10.9391 4 12 4H20C21.0609 4 22.0783 4.42143 22.8284 5.17157C23.5786 5.92172 24 6.93913 24 8V12" stroke="currentColor" stroke-width="2" stroke-linecap="round" stroke-linejoin="round"/>
<circle cx="16" cy="20" r="2" stroke="currentColor" stroke-width="2"/>
<path d="M16 22V24" stroke="currentColor" stroke-width="2" stroke-linecap="round" stroke-linejoin="round"/>
</svg>

