<svg width="16" height="16" viewBox="0 0 16 16" fill="none" xmlns="http://www.w3.org/2000/svg">
<path d="M7.99998 5.99999V8.66666" stroke="#FFA500" stroke-width="1.5" stroke-linecap="round" stroke-linejoin="round"/>
<path d="M8 11.3333H8.00667" stroke="#FFA500" stroke-width="1.5" stroke-linecap="round" stroke-linejoin="round"/>
<path d="M6.86001 2.57333L1.21335 11.3333C1.09693 11.5278 1.03533 11.7504 1.03467 11.9775C1.03402 12.2047 1.09434 12.4276 1.20963 12.6228C1.32492 12.818 1.49120 12.9783 1.69112 13.0871C1.89103 13.1959 2.11727 13.2493 2.34668 13.2413H13.64C13.8694 13.2493 14.0956 13.1959 14.2956 13.0871C14.4955 12.9783 14.6618 12.818 14.7770 12.6228C14.8923 12.4276 14.9527 12.2047 14.952 11.9775C14.9513 11.7504 14.8897 11.5278 14.7733 11.3333L9.12668 2.57333C9.00816 2.38439 8.84116 2.23041 8.64235 2.1271C8.44355 2.02379 8.22004 1.96484 7.99335 1.96484C7.76665 1.96484 7.54314 2.02379 7.34434 2.1271C7.14553 2.23041 6.97853 2.38439 6.86001 2.57333Z" stroke="#FFA500" stroke-width="1.5" stroke-linecap="round" stroke-linejoin="round"/>
</svg>

