<svg width="19" height="18" viewBox="0 0 19 18" fill="none" xmlns="http://www.w3.org/2000/svg">
<mask id="mask0_3137_8390" style="mask-type:luminance" maskUnits="userSpaceOnUse" x="0" y="0" width="19" height="18">
<path d="M0 0H18.1653V17.8049H0V0Z" fill="white"/>
</mask>
<g mask="url(#mask0_3137_8390)">
<path d="M9.08451 16.3218C13.2647 16.3218 16.6534 13.0003 16.6534 8.90307C16.6534 4.80584 13.2647 1.48438 9.08451 1.48438C4.90433 1.48438 1.51562 4.80584 1.51562 8.90307C1.51562 13.0003 4.90433 16.3218 9.08451 16.3218Z" stroke="#F1CB68" stroke-width="1.66667"/>
<path d="M9.63331 1.99569C7.75414 3.92967 6.81456 6.23202 6.81456 8.90276C6.81456 11.5735 7.75414 13.8758 9.63331 15.8099L9.08522 16.3215L8.53714 15.8099C10.4163 13.8758 11.3559 11.5735 11.3559 8.90276C11.3559 6.23202 10.4163 3.92967 8.53714 1.99569L9.08522 1.48406L9.63331 1.99569ZM8.53714 0.972425C8.54562 0.96369 8.55432 0.955163 8.56323 0.946844C8.59922 0.913249 8.63821 0.883418 8.68019 0.857351C8.72217 0.831284 8.76635 0.809481 8.81271 0.791943C8.85908 0.774404 8.90674 0.761467 8.95571 0.753132C9.00467 0.744796 9.05399 0.741222 9.10368 0.74241C9.15336 0.743598 9.20245 0.749524 9.25094 0.76019C9.29943 0.770855 9.3464 0.786054 9.39183 0.805787C9.43727 0.82552 9.48031 0.849408 9.52095 0.87745C9.56159 0.905493 9.59904 0.937151 9.63331 0.972425C11.7909 3.19291 12.8697 5.83636 12.8697 8.90276C12.8697 11.9692 11.7909 14.6126 9.63331 16.8331C9.62482 16.8418 9.61613 16.8504 9.60722 16.8587C9.57123 16.8923 9.53224 16.9221 9.49026 16.9481C9.44828 16.9742 9.4041 16.9961 9.35774 17.0136C9.31137 17.0311 9.26371 17.0441 9.21474 17.0524C9.16578 17.0607 9.11645 17.0643 9.06676 17.0631C9.01708 17.0619 8.968 17.056 8.91951 17.0453C8.87101 17.0347 8.82405 17.0195 8.77861 16.9998C8.73317 16.98 8.69013 16.9561 8.6495 16.9281C8.60886 16.9 8.57141 16.8684 8.53714 16.8331C6.37957 14.6126 5.30078 11.9692 5.30078 8.90276C5.30078 5.83636 6.37957 3.19292 8.53714 0.972425Z" fill="#F1CB68"/>
<path fill-rule="evenodd" clip-rule="evenodd" d="M0.757812 8.90203C0.757812 9.31175 1.09669 9.6439 1.5147 9.6439H16.6525C17.0705 9.6439 17.4094 9.31175 17.4094 8.90203C17.4094 8.49231 17.0705 8.16016 16.6525 8.16016H1.5147C1.09669 8.16016 0.757812 8.49231 0.757812 8.90203Z" fill="#F1CB68"/>
</g>
</svg>
