<svg width="18" height="18" viewBox="0 0 18 18" fill="none" xmlns="http://www.w3.org/2000/svg">
<mask id="mask0_893_2198" style="mask-type:luminance" maskUnits="userSpaceOnUse" x="0" y="0" width="18" height="18">
<path d="M0 0H17.792V17.0255H0V0Z" fill="white"/>
</mask>
<g mask="url(#mask0_893_2198)">
<path d="M7.08994 1.59619H2.36394C1.98011 1.59619 1.66895 1.89395 1.66895 2.26125V6.78366C1.66895 7.15097 1.98011 7.44872 2.36394 7.44872H7.08994C7.47377 7.44872 7.78494 7.15097 7.78494 6.78366V2.26125C7.78494 1.89395 7.47377 1.59619 7.08994 1.59619Z" stroke="black" stroke-width="1.25" stroke-linejoin="round"/>
<path d="M15.4308 1.59619H10.7048C10.3209 1.59619 10.0098 1.89395 10.0098 2.26125V6.78366C10.0098 7.15097 10.3209 7.44872 10.7048 7.44872H15.4308C15.8146 7.44872 16.1258 7.15097 16.1258 6.78366V2.26125C16.1258 1.89395 15.8146 1.59619 15.4308 1.59619Z" stroke="black" stroke-width="1.25" stroke-linejoin="round"/>
<path d="M7.08994 9.57715H2.36394C1.98011 9.57715 1.66895 9.87491 1.66895 10.2422V14.7646C1.66895 15.1319 1.98011 15.4297 2.36394 15.4297H7.08994C7.47377 15.4297 7.78494 15.1319 7.78494 14.7646V10.2422C7.78494 9.87491 7.47377 9.57715 7.08994 9.57715Z" stroke="black" stroke-width="1.25" stroke-linejoin="round"/>
<path d="M15.4308 9.57715H10.7048C10.3209 9.57715 10.0098 9.87491 10.0098 10.2422V14.7646C10.0098 15.1319 10.3209 15.4297 10.7048 15.4297H15.4308C15.8146 15.4297 16.1258 15.1319 16.1258 14.7646V10.2422C16.1258 9.87491 15.8146 9.57715 15.4308 9.57715Z" stroke="black" stroke-width="1.25" stroke-linejoin="round"/>
</g>
</svg>
