<svg width="18" height="16" viewBox="0 0 18 16" fill="none" xmlns="http://www.w3.org/2000/svg">
<mask id="mask0_893_2275" style="mask-type:luminance" maskUnits="userSpaceOnUse" x="0" y="0" width="18" height="16">
<path d="M0 0H17.792V15.1338H0V0Z" fill="white"/>
</mask>
<g mask="url(#mask0_893_2275)">
<path d="M10.4794 10.4863C11.3228 10.3839 12.0826 9.97667 12.5552 9.35923L17.5499 2.78807C17.9391 2.27572 17.8402 1.59786 17.3152 1.1801C16.79 0.762343 15.99 0.725559 15.4155 1.0934L8.10409 5.75966C7.36276 6.23259 6.92414 6.97089 6.91796 7.75911L10.4794 10.4863ZM9.87402 11.1537L6.29092 8.4107C4.44377 8.46851 2.96419 9.76385 2.96419 11.3508C2.96419 11.4532 2.97037 11.5557 2.98273 11.6556C3.03833 12.1153 2.66766 12.6119 2.12402 12.6119H1.97575C1.42902 12.6119 0.987305 12.9876 0.987305 13.4527C0.987305 13.9177 1.42902 14.2935 1.97575 14.2935H6.42374C8.33576 14.2935 9.88329 12.9772 9.88329 11.3508C9.88329 11.2851 9.8802 11.2194 9.87712 11.1537H9.87402Z" fill="#9CA3AF"/>
</g>
</svg>
