<svg width="17" height="17" viewBox="0 0 17 17" fill="none" xmlns="http://www.w3.org/2000/svg">
<mask id="mask0_893_2163" style="mask-type:luminance" maskUnits="userSpaceOnUse" x="0" y="0" width="17" height="17">
<path d="M0 8.2931C0 3.71295 3.71295 0 8.2931 0C12.8733 0 16.5862 3.71295 16.5862 8.2931C16.5862 12.8733 12.8733 16.5862 8.2931 16.5862C3.71295 16.5862 0 12.8733 0 8.2931Z" fill="white"/>
<path d="M8.29297 0.5C12.5969 0.5 16.0859 3.98902 16.0859 8.29297C16.0859 12.597 12.597 16.0859 8.29297 16.0859C3.98902 16.0859 0.5 12.5969 0.5 8.29297C0.500073 3.98906 3.98906 0.500073 8.29297 0.5Z" stroke="white"/>
</mask>
<g mask="url(#mask0_893_2163)">
<path fill-rule="evenodd" clip-rule="evenodd" d="M8.29256 3.10986C8.00631 3.10986 7.77425 3.34193 7.77425 3.62818C7.77425 5.91826 5.91777 7.77473 3.62769 7.77473C3.34144 7.77473 3.10938 8.0068 3.10938 8.29305C3.10938 8.57931 3.34144 8.81137 3.62769 8.81137C5.91777 8.81137 7.77425 10.6678 7.77425 12.9579C7.77425 13.2442 8.00631 13.4762 8.29256 13.4762C8.57882 13.4762 8.81088 13.2442 8.81088 12.9579C8.81088 10.6678 10.6674 8.81137 12.9574 8.81137C13.2437 8.81137 13.4758 8.57931 13.4758 8.29305C13.4758 8.0068 13.2437 7.77473 12.9574 7.77473C10.6674 7.77473 8.81088 5.91826 8.81088 3.62818C8.81088 3.34193 8.57882 3.10986 8.29256 3.10986Z" fill="black"/>
<path d="M8.29297 3.60986C8.3029 3.61008 8.31055 3.61844 8.31055 3.62842C8.31067 6.19439 10.3911 8.27468 12.957 8.2749C12.9672 8.2749 12.9756 8.28333 12.9756 8.29346C12.9754 8.30339 12.967 8.31104 12.957 8.31104C10.3911 8.31125 8.31077 10.3916 8.31055 12.9575C8.31055 12.9675 8.30291 12.9759 8.29297 12.9761C8.28284 12.9761 8.27441 12.9676 8.27441 12.9575C8.2742 10.3916 6.19391 8.31116 3.62793 8.31104C3.61795 8.31104 3.60959 8.30338 3.60938 8.29346C3.60938 8.28334 3.61782 8.2749 3.62793 8.2749C6.19396 8.27477 8.27429 6.19445 8.27441 3.62842C8.27441 3.61831 8.28286 3.60986 8.29297 3.60986Z" stroke="white" stroke-opacity="0.08"/>
</g>
</svg>
