<svg width="492" height="492" viewBox="0 0 492 492" fill="none" xmlns="http://www.w3.org/2000/svg">
<path fill-rule="evenodd" clip-rule="evenodd" d="M355.628 399.744C354.801 397.481 355.962 395.002 358.206 394.175L363.697 392.168C363.972 392.069 364.11 391.754 364.012 391.479L363.008 388.743C362.181 386.48 363.342 384 365.586 383.174L367.889 382.328C368.873 381.973 369.975 382.485 370.329 383.469C370.683 384.453 370.191 385.555 369.187 385.909L366.885 386.756C366.609 386.854 366.472 387.169 366.57 387.444L367.574 390.18C368.4 392.443 367.239 394.923 364.996 395.749L359.505 397.757C359.229 397.855 359.092 398.17 359.19 398.446L361.847 405.767C362.201 406.751 361.709 407.853 360.705 408.207C359.721 408.561 358.619 408.049 358.265 407.065L355.628 399.744Z" fill="white"/>
<path d="M360.075 409.014C359.012 409.014 358.009 408.364 357.635 407.302L354.978 399.981C354.525 398.721 354.584 397.343 355.135 396.123C355.706 394.903 356.71 393.978 357.969 393.526L363.322 391.577L362.377 388.979C361.925 387.72 361.984 386.342 362.535 385.122C363.106 383.902 364.109 382.977 365.369 382.524L367.671 381.678C368.321 381.442 369.029 381.481 369.659 381.777C370.289 382.072 370.761 382.583 370.997 383.233C371.233 383.882 371.214 384.591 370.919 385.221C370.623 385.85 370.112 386.323 369.462 386.559L367.297 387.346L368.242 389.944C369.187 392.561 367.849 395.454 365.251 396.399L359.898 398.347L362.515 405.511C362.751 406.16 362.732 406.869 362.437 407.498C362.141 408.128 361.63 408.6 360.98 408.837C360.665 408.974 360.37 409.014 360.075 409.014ZM368.557 382.918C368.419 382.918 368.281 382.938 368.144 382.997L365.841 383.843C364.936 384.178 364.188 384.847 363.794 385.732C363.381 386.618 363.342 387.602 363.676 388.527L364.68 391.262C364.916 391.892 364.582 392.601 363.952 392.837L358.461 394.844C357.556 395.179 356.808 395.848 356.414 396.733C356.001 397.619 355.962 398.603 356.296 399.528L358.953 406.849C359.189 407.479 359.878 407.813 360.508 407.577C360.803 407.459 361.059 407.243 361.197 406.947C361.334 406.652 361.354 406.318 361.236 406.022L358.579 398.701C358.343 398.072 358.678 397.363 359.307 397.127L364.798 395.12C366.687 394.431 367.652 392.325 366.963 390.436L365.959 387.7C365.841 387.385 365.861 387.071 365.999 386.775C366.136 386.48 366.373 386.244 366.687 386.146L368.99 385.299C369.285 385.181 369.541 384.965 369.679 384.67C369.817 384.374 369.836 384.04 369.718 383.745C369.6 383.449 369.384 383.194 369.088 383.056C368.911 382.957 368.734 382.918 368.557 382.918Z" fill="#1D1D2C"/>
<path fill-rule="evenodd" clip-rule="evenodd" d="M340.514 380.93C340.179 380.025 340.75 378.982 341.773 378.608L365.921 369.811C366.944 369.437 368.046 369.87 368.381 370.775C368.715 371.681 368.144 372.724 367.121 373.098L342.974 381.914C341.931 382.288 340.848 381.836 340.514 380.93Z" fill="white"/>
<path d="M342.225 382.721C341.182 382.721 340.218 382.131 339.864 381.166C339.628 380.537 339.687 379.848 340.021 379.238C340.336 378.647 340.867 378.195 341.536 377.959L365.684 369.181C366.333 368.945 367.042 368.945 367.672 369.201C368.321 369.457 368.813 369.949 369.029 370.579C369.246 371.208 369.207 371.897 368.872 372.507C368.557 373.098 368.026 373.55 367.357 373.786L343.209 382.544C342.875 382.682 342.54 382.721 342.225 382.721ZM366.668 370.382C366.491 370.382 366.314 370.421 366.156 370.48L342.009 379.257C341.674 379.376 341.399 379.612 341.241 379.907C341.104 380.163 341.064 380.458 341.163 380.714C341.359 381.265 342.068 381.521 342.737 381.285L366.884 372.488C367.219 372.369 367.494 372.133 367.652 371.838C367.79 371.582 367.829 371.287 367.731 371.031C367.632 370.775 367.435 370.579 367.16 370.461C367.002 370.401 366.825 370.382 366.668 370.382Z" fill="#1D1D2C"/>
<path fill-rule="evenodd" clip-rule="evenodd" d="M338.723 359.853C338.388 358.948 338.861 357.944 339.766 357.61L345.886 355.386C348.996 354.244 352.46 355.858 353.601 358.987L354.801 362.274C355.274 363.573 356.71 364.261 358.029 363.789L363.047 361.959C363.953 361.624 364.956 362.097 365.291 363.002C365.625 363.907 365.153 364.911 364.248 365.245L359.229 367.076C356.12 368.217 352.656 366.603 351.515 363.474L350.314 360.188C349.842 358.889 348.405 358.2 347.087 358.672L340.966 360.896C340.061 361.231 339.057 360.758 338.723 359.853Z" fill="white"/>
<path d="M357.182 368.119C354.447 368.119 351.868 366.426 350.865 363.691L349.664 360.404C349.507 359.951 349.153 359.577 348.72 359.361C348.287 359.164 347.775 359.125 347.322 359.302L341.202 361.545C340.592 361.762 339.923 361.742 339.332 361.467C338.742 361.191 338.289 360.699 338.073 360.089C337.856 359.479 337.876 358.81 338.151 358.22C338.427 357.629 338.919 357.177 339.529 356.96L345.65 354.736C347.322 354.126 349.153 354.205 350.766 354.972C352.38 355.74 353.62 357.078 354.23 358.771L355.431 362.057C355.588 362.51 355.942 362.884 356.375 363.1C356.808 363.297 357.32 363.336 357.772 363.159L362.791 361.329C363.401 361.113 364.07 361.132 364.66 361.408C365.251 361.683 365.703 362.175 365.92 362.785C366.373 364.045 365.723 365.462 364.464 365.914L359.445 367.745C358.697 368.001 357.93 368.119 357.182 368.119ZM347.952 357.826C348.405 357.826 348.877 357.924 349.31 358.121C350.078 358.475 350.668 359.125 350.963 359.932L352.164 363.218C353.167 365.993 356.237 367.43 358.993 366.426L364.011 364.596C364.562 364.399 364.838 363.789 364.641 363.238C364.542 362.962 364.346 362.746 364.09 362.628C363.834 362.51 363.539 362.49 363.283 362.589L358.264 364.419C357.458 364.714 356.592 364.675 355.824 364.301C355.057 363.946 354.466 363.297 354.171 362.49L352.971 359.204C352.479 357.865 351.495 356.783 350.215 356.193C348.936 355.582 347.48 355.523 346.142 356.015L340.001 358.259C339.746 358.357 339.529 358.554 339.411 358.81C339.293 359.066 339.273 359.361 339.372 359.617C339.47 359.892 339.667 360.109 339.923 360.227C340.179 360.345 340.474 360.365 340.73 360.266L346.85 358.042C347.224 357.905 347.598 357.826 347.952 357.826Z" fill="#1D1D2C"/>
<path fill-rule="evenodd" clip-rule="evenodd" d="M429.329 391.046L412.68 345.329C411.303 341.551 407.13 339.602 403.352 340.98L366.432 354.421C362.654 355.799 360.705 359.971 362.083 363.75L378.732 409.466C380.11 413.245 384.282 415.193 388.06 413.816L424.98 400.374C428.759 398.997 430.707 394.824 429.329 391.046Z" fill="white"/>
<path d="M385.56 414.937C384.418 414.937 383.277 414.682 382.194 414.19C380.266 413.284 378.809 411.69 378.081 409.683L361.432 363.966C360.704 361.959 360.802 359.794 361.708 357.865C362.613 355.937 364.207 354.48 366.214 353.752L403.134 340.311C405.141 339.583 407.306 339.681 409.235 340.586C411.163 341.492 412.62 343.086 413.348 345.093L429.997 390.81C431.493 394.942 429.367 399.528 425.235 401.024L388.315 414.465C387.41 414.78 386.485 414.937 385.56 414.937ZM405.85 341.216C405.082 341.216 404.334 341.354 403.587 341.61L366.667 355.051C365.014 355.661 363.695 356.862 362.947 358.456C362.2 360.05 362.121 361.841 362.731 363.494L379.38 409.21C379.99 410.864 381.191 412.182 382.785 412.93C384.379 413.678 386.17 413.757 387.823 413.146L424.743 399.725C428.167 398.485 429.918 394.687 428.679 391.282L412.029 345.565C411.419 343.912 410.219 342.594 408.625 341.846C407.739 341.413 406.794 341.216 405.85 341.216Z" fill="#1D1D2C"/>
<path fill-rule="evenodd" clip-rule="evenodd" d="M424.329 377.309L407.7 331.593C406.322 327.814 402.15 325.866 398.372 327.243L361.432 340.665C357.654 342.043 355.705 346.215 357.083 349.993L373.732 395.71C375.11 399.489 379.282 401.437 383.06 400.059L419.98 386.618C423.759 385.28 425.707 381.088 424.329 377.309Z" fill="white"/>
<path d="M380.561 401.22C379.42 401.22 378.279 400.965 377.196 400.473C375.267 399.567 373.811 397.973 373.083 395.966L356.434 350.249C354.938 346.116 357.063 341.531 361.196 340.035L398.116 326.594C402.249 325.098 406.834 327.224 408.33 331.356L424.979 377.073C425.707 379.08 425.609 381.245 424.704 383.174C423.798 385.103 422.204 386.559 420.197 387.287L383.277 400.728C382.411 401.063 381.486 401.22 380.561 401.22ZM400.851 327.479C400.084 327.479 399.336 327.617 398.588 327.873L361.669 341.315C358.244 342.554 356.493 346.353 357.733 349.757L374.382 395.474C374.992 397.127 376.192 398.446 377.787 399.193C379.381 399.941 381.171 400.02 382.825 399.41L419.744 385.968C421.397 385.358 422.716 384.158 423.464 382.564C424.212 380.97 424.29 379.179 423.68 377.526L407.051 331.829C406.441 330.176 405.24 328.857 403.646 328.109C402.741 327.696 401.796 327.479 400.851 327.479Z" fill="#1D1D2C"/>
<path fill-rule="evenodd" clip-rule="evenodd" d="M430.116 358.141L428.109 352.611L416.832 356.704L418.839 362.234L430.116 358.141Z" fill="white"/>
<path d="M418.427 363.12L415.947 356.291L428.503 351.725L430.983 358.554L418.427 363.12ZM417.718 357.118L419.254 361.349L429.231 357.728L427.696 353.496L417.718 357.118Z" fill="#1D1D2C"/>
<path d="M443.801 359.587C447.674 355.714 447.674 349.433 443.8 345.56C439.927 341.687 433.647 341.687 429.773 345.56C425.9 349.434 425.9 355.714 429.773 359.587C433.647 363.461 439.927 363.461 443.801 359.587Z" fill="#F9BD1D"/>
<path d="M442.672 351.115C442.397 351.115 442.121 350.938 442.023 350.662C440.98 347.769 437.772 346.293 434.879 347.337C434.525 347.474 434.131 347.277 433.993 346.923C433.856 346.569 434.052 346.175 434.407 346.038C438.008 344.719 442.003 346.589 443.302 350.19C443.44 350.544 443.243 350.938 442.889 351.076C442.83 351.115 442.751 351.115 442.672 351.115Z" fill="#1D1D2C"/>
<path d="M432.796 348.517C433.154 348.387 433.338 347.992 433.208 347.634C433.078 347.277 432.682 347.093 432.325 347.223C431.968 347.353 431.783 347.748 431.913 348.106C432.043 348.463 432.439 348.647 432.796 348.517Z" fill="#1D1D2C"/>
<path d="M395.933 349.679C395.815 349.679 395.696 349.639 395.598 349.58L386.211 344.188C385.876 343.991 385.758 343.578 385.955 343.243C386.152 342.909 386.565 342.791 386.9 342.987L395.578 347.986L399.022 338.579C399.16 338.225 399.554 338.048 399.908 338.166C400.262 338.303 400.439 338.697 400.321 339.051L396.582 349.226C396.503 349.423 396.366 349.56 396.169 349.639C396.09 349.679 396.011 349.679 395.933 349.679Z" fill="#1D1D2C"/>
<path d="M399.219 379.12C399.14 379.12 399.062 379.1 398.983 379.08C398.629 378.943 398.452 378.549 398.57 378.195L402.289 368.02C402.368 367.823 402.506 367.686 402.702 367.607C402.899 367.528 403.096 367.548 403.273 367.666L412.661 373.058C412.995 373.255 413.113 373.668 412.916 374.003C412.72 374.337 412.306 374.456 411.972 374.259L403.293 369.26L399.869 378.667C399.77 378.943 399.495 379.12 399.219 379.12Z" fill="#1D1D2C"/>
<path d="M384.676 374.2C384.617 374.2 384.558 374.2 384.479 374.18C384.105 374.082 383.908 373.688 384.007 373.334C386.27 365.521 384.085 359.558 377.355 355.051C377.04 354.835 376.961 354.421 377.158 354.087C377.375 353.772 377.788 353.693 378.122 353.89C385.325 358.712 387.746 365.363 385.345 373.708C385.247 374.003 384.971 374.2 384.676 374.2Z" fill="#1D1D2C"/>
<path fill-rule="evenodd" clip-rule="evenodd" d="M151.025 138.095C164.565 144.924 177.75 159.152 190.582 180.8L159.664 200.421L141.264 178.675L151.025 138.095Z" fill="#F9BD1D"/>
<path fill-rule="evenodd" clip-rule="evenodd" d="M150.69 367.878C150.572 376.419 153.878 381.517 160.589 383.15C170.646 385.61 185.76 383.524 190.227 398.382C194.695 413.241 177.416 418.2 161.396 417.551C151.576 417.157 137.032 416.783 117.766 416.449C114.932 416.39 112.688 414.067 112.747 411.233C112.747 411.194 112.747 411.155 112.747 411.115L114.499 369.217L150.69 367.878Z" fill="white"/>
<path d="M164.229 418.298C163.284 418.298 162.34 418.279 161.356 418.239C151.594 417.846 136.913 417.472 117.745 417.137C116.19 417.118 114.753 416.488 113.671 415.366C112.589 414.244 112.018 412.788 112.038 411.233C112.038 411.194 112.038 411.135 112.038 411.095L113.809 368.547L151.378 367.17V367.898C151.28 376.163 154.33 380.926 160.746 382.5C162.93 383.032 165.351 383.347 167.909 383.681C176.982 384.862 187.274 386.2 190.876 398.205C192.273 402.85 191.702 406.845 189.203 410.092C185.149 415.287 175.939 418.298 164.229 418.298ZM115.147 369.886L113.415 411.154C113.415 411.194 113.415 411.233 113.415 411.253C113.396 412.434 113.828 413.555 114.655 414.402C115.482 415.248 116.584 415.74 117.764 415.76C136.952 416.094 151.653 416.468 161.415 416.862C167.161 417.098 172.613 416.586 177.178 415.405C182.216 414.087 186.015 411.961 188.12 409.226C190.344 406.353 190.836 402.771 189.577 398.579C186.231 387.44 176.824 386.22 167.752 385.039C165.154 384.705 162.714 384.39 160.45 383.839C153.621 382.166 150.118 377.049 150.02 368.606L115.147 369.886Z" fill="#1D1D2C"/>
<path fill-rule="evenodd" clip-rule="evenodd" d="M150.689 367.878C150.571 375.278 153.878 379.667 160.589 381.084C170.645 383.209 185.759 381.398 190.227 394.249C194.694 407.101 177.415 411.391 161.395 410.84C151.575 410.505 137.051 410.19 117.804 409.895C114.97 409.856 112.727 407.533 112.766 404.7C112.766 404.641 112.766 404.581 112.766 404.522L114.478 369.039L150.689 367.878Z" fill="white"/>
<path d="M164.13 411.568C163.205 411.568 162.28 411.548 161.355 411.528C151.594 411.194 136.933 410.879 117.784 410.584C114.576 410.544 112.018 407.888 112.057 404.699C112.057 404.64 112.057 404.562 112.057 404.503L113.809 368.37L151.378 367.17L151.358 367.898C151.26 374.983 154.31 379.076 160.706 380.414C162.891 380.867 165.311 381.142 167.87 381.438C176.942 382.461 187.215 383.622 190.856 394.033C192.135 397.733 191.781 400.98 189.793 403.676C187.648 406.569 183.732 408.734 178.123 410.092C174.069 411.076 169.267 411.568 164.13 411.568ZM115.127 369.708L113.435 404.562C113.435 404.601 113.435 404.66 113.435 404.699C113.395 407.14 115.363 409.147 117.804 409.186C136.972 409.482 151.634 409.797 161.415 410.131C171.747 410.485 184.342 408.773 188.711 402.83C190.423 400.527 190.698 397.693 189.577 394.466C186.231 384.862 176.844 383.819 167.751 382.796C165.154 382.5 162.713 382.225 160.45 381.753C153.621 380.316 150.118 375.888 150 368.587L115.127 369.708Z" fill="#1D1D2C"/>
<path fill-rule="evenodd" clip-rule="evenodd" d="M152.166 375.239C153.72 378.289 156.534 380.237 160.589 381.084C170.645 383.209 185.759 381.398 190.227 394.249C194.694 407.101 177.415 411.391 161.395 410.84C151.575 410.505 137.051 410.19 117.804 409.895C114.97 409.856 112.727 407.533 112.766 404.7C112.766 404.64 112.766 404.581 112.766 404.522L114.026 378.309C131.777 382.933 140.357 384.311 139.728 382.441C135.674 370.122 151.752 374.451 152.166 375.239Z" fill="white"/>
<path d="M164.13 411.568C163.205 411.568 162.28 411.548 161.355 411.529C151.594 411.194 136.933 410.879 117.784 410.584C114.576 410.545 112.018 407.888 112.057 404.7C112.057 404.641 112.057 404.562 112.057 404.503L113.356 377.443L114.183 377.659C121.956 379.686 128.037 381.103 132.249 381.871C137.11 382.756 138.566 382.619 138.999 382.481C137.247 376.99 139.452 374.766 141.597 373.861C143.781 372.956 146.517 373.113 148.426 373.408C148.583 373.428 152.283 374.018 152.736 374.924C154.212 377.797 156.809 379.588 160.686 380.414C162.871 380.867 165.291 381.143 167.85 381.438C176.922 382.461 187.195 383.622 190.836 394.033C192.115 397.733 191.761 400.98 189.773 403.676C187.628 406.569 183.712 408.734 178.103 410.092C174.069 411.076 169.267 411.568 164.13 411.568ZM114.675 379.194L113.454 404.562C113.454 404.621 113.454 404.66 113.454 404.7C113.415 407.14 115.383 409.147 117.823 409.187C136.992 409.482 151.653 409.797 161.434 410.131C171.766 410.486 184.361 408.773 188.73 402.83C190.443 400.527 190.718 397.694 189.596 394.466C186.251 384.862 176.863 383.819 167.771 382.796C165.173 382.501 162.733 382.225 160.47 381.753C156.278 380.867 153.306 378.82 151.634 375.672C150.709 375.14 144.254 373.448 141.262 375.632C139.648 376.813 139.353 379.037 140.416 382.225C140.554 382.638 140.475 383.052 140.18 383.366C139.629 383.937 138.31 384.331 132.367 383.268C128.214 382.54 122.271 381.162 114.675 379.194Z" fill="#1D1D2C"/>
<path d="M133.254 409.895H131.876C131.876 399.169 125.815 393.797 113.377 393.443L113.416 392.065C126.582 392.439 133.254 398.441 133.254 409.895Z" fill="#1D1D2C"/>
<path fill-rule="evenodd" clip-rule="evenodd" d="M102.376 367.878C102.258 376.419 105.564 381.517 112.275 383.15C122.331 385.61 137.446 383.524 141.913 398.382C146.38 413.241 129.101 418.2 113.082 417.551C103.261 417.157 88.7179 416.783 69.4512 416.449C66.6173 416.39 64.3737 414.067 64.4328 411.233C64.4328 411.194 64.4328 411.155 64.4328 411.115L66.1843 369.217L102.376 367.878Z" fill="white"/>
<path d="M115.895 418.298C114.951 418.298 114.006 418.279 113.022 418.239C103.261 417.846 88.5796 417.472 69.4113 417.137C66.2035 417.078 63.6451 414.441 63.7041 411.233C63.7041 411.194 63.7041 411.135 63.7041 411.095L65.4753 368.547L103.044 367.17V367.898C102.946 376.163 105.996 380.926 112.412 382.5C114.597 383.032 117.017 383.347 119.576 383.681C128.648 384.862 138.941 386.2 142.542 398.205C143.939 402.85 143.369 406.845 140.869 410.092C136.835 415.287 127.625 418.298 115.895 418.298ZM66.8136 369.886L65.0817 411.154C65.0817 411.194 65.0817 411.233 65.0817 411.253C65.0424 413.693 66.9907 415.72 69.431 415.76C88.619 416.094 103.32 416.468 113.081 416.862C118.828 417.098 124.279 416.586 128.845 415.405C133.883 414.087 137.681 411.961 139.787 409.226C142.011 406.353 142.503 402.771 141.243 398.579C137.898 387.44 128.491 386.22 119.418 385.039C116.82 384.705 114.38 384.39 112.117 383.839C105.288 382.166 101.785 377.049 101.687 368.606L66.8136 369.886Z" fill="#1D1D2C"/>
<path fill-rule="evenodd" clip-rule="evenodd" d="M102.375 367.878C102.257 375.278 105.563 379.667 112.274 381.084C122.331 383.209 137.445 381.398 141.912 394.249C146.38 407.101 129.1 411.391 113.081 410.84C103.261 410.505 88.7368 410.19 69.4898 409.895C66.6558 409.856 64.4123 407.533 64.4517 404.7C64.4517 404.641 64.4517 404.581 64.4517 404.522L66.1638 369.039L102.375 367.878Z" fill="white"/>
<path d="M115.818 411.568C114.893 411.568 113.968 411.548 113.043 411.528C103.282 411.194 88.62 410.879 69.4714 410.584C67.9166 410.564 66.48 409.934 65.3976 408.813C64.3152 407.691 63.7445 406.235 63.7642 404.68C63.7642 404.621 63.7642 404.542 63.7642 404.483L65.5157 368.35L103.085 367.15L103.065 367.878C102.967 374.963 106.017 379.056 112.413 380.395C114.598 380.847 117.018 381.123 119.577 381.418C128.649 382.441 138.922 383.603 142.563 394.013C143.842 397.713 143.488 400.96 141.5 403.656C139.355 406.549 135.439 408.714 129.83 410.072C125.756 411.076 120.954 411.568 115.818 411.568ZM66.8146 369.708L65.1221 404.562C65.1221 404.621 65.1221 404.66 65.1221 404.699C65.1024 405.88 65.555 407.002 66.3816 407.848C67.2082 408.694 68.3102 409.167 69.491 409.186C88.6594 409.482 103.321 409.797 113.102 410.131C123.434 410.485 136.029 408.773 140.398 402.83C142.11 400.527 142.386 397.693 141.264 394.466C137.918 384.862 128.531 383.819 119.439 382.796C116.841 382.5 114.401 382.225 112.138 381.753C105.309 380.316 101.806 375.888 101.688 368.587L66.8146 369.708Z" fill="#1D1D2C"/>
<path fill-rule="evenodd" clip-rule="evenodd" d="M103.832 375.239C105.386 378.289 108.2 380.237 112.255 381.084C122.311 383.209 137.425 381.398 141.893 394.249C146.36 407.101 129.081 411.391 113.061 410.84C103.241 410.505 88.7173 410.19 69.4702 409.895C66.6363 409.856 64.3928 407.533 64.4322 404.7C64.4322 404.64 64.4322 404.581 64.4322 404.522L65.6917 378.309C83.443 382.933 92.0235 384.311 91.3938 382.441C87.3594 370.122 103.438 374.451 103.832 375.239Z" fill="white"/>
<path d="M115.816 411.568C114.891 411.568 113.966 411.548 113.041 411.529C103.28 411.194 88.6182 410.879 69.4695 410.584C66.2617 410.545 63.7033 407.888 63.7426 404.7C63.7426 404.641 63.7426 404.562 63.7426 404.503L65.0415 377.443L65.8681 377.659C73.6417 379.686 79.7228 381.103 83.9343 381.871C88.7756 382.756 90.2516 382.619 90.6846 382.481C88.933 376.99 91.1372 374.766 93.2823 373.861C95.4668 372.956 98.2023 373.113 100.111 373.408C100.269 373.428 103.969 374.018 104.421 374.924C105.897 377.797 108.495 379.588 112.372 380.414C114.556 380.867 116.977 381.143 119.535 381.438C128.608 382.461 138.881 383.622 142.522 394.033C143.801 397.733 143.447 400.98 141.459 403.676C139.314 406.569 135.398 408.734 129.789 410.092C125.754 411.076 120.952 411.568 115.816 411.568ZM66.3601 379.194L65.1399 404.562C65.1399 404.621 65.1399 404.66 65.1399 404.7C65.1006 407.14 67.0686 409.147 69.5089 409.187C88.6772 409.482 103.339 409.797 113.12 410.131C123.452 410.486 136.047 408.773 140.416 402.83C142.128 400.527 142.404 397.694 141.282 394.466C137.936 384.862 128.549 383.819 119.457 382.796C116.859 382.501 114.419 382.225 112.155 381.753C107.964 380.867 104.992 378.82 103.319 375.672C102.394 375.14 95.9391 373.448 92.9478 375.632C91.334 376.813 91.0388 379.037 92.1015 382.225C92.2393 382.638 92.1606 383.052 91.8654 383.366C91.3143 383.937 89.9958 384.331 84.0524 383.268C79.8999 382.54 73.9566 381.162 66.3601 379.194Z" fill="#1D1D2C"/>
<path fill-rule="evenodd" clip-rule="evenodd" d="M145.16 232.598C147.069 249.031 148.545 267.431 149.608 287.84C150.671 308.248 152.087 335.682 153.859 370.122H107.355L104.855 232.598H145.16Z" fill="white"/>
<path d="M154.586 370.811H106.685L104.146 231.909H145.77L145.848 232.519C147.738 248.873 149.233 267.491 150.296 287.82C151.359 308.09 152.776 335.78 154.547 370.102L154.586 370.811ZM108.043 369.433H153.15C151.398 335.446 149.981 308.012 148.938 287.879C147.895 267.825 146.419 249.464 144.569 233.287H105.563L108.043 369.433Z" fill="#1D1D2C"/>
<path fill-rule="evenodd" clip-rule="evenodd" d="M108.751 232.598C112.589 251.491 113.868 270.187 112.589 288.706C111.31 307.224 110.031 334.363 108.751 370.102H58.6855C62.346 337.04 64.1959 314.112 64.1959 301.34C64.1959 282.172 62.3263 255.801 69.175 232.578H108.751V232.598Z" fill="white"/>
<path d="M109.401 370.811H57.918L57.9967 370.043C61.6375 337.158 63.4874 314.053 63.4874 301.36C63.4874 298.132 63.4284 294.728 63.3693 291.126C63.0938 273.611 62.7593 251.825 68.4861 232.421L68.6239 231.929H109.283L109.401 232.48C113.238 251.333 114.537 270.285 113.258 288.784C111.979 307.205 110.7 334.599 109.421 370.161L109.401 370.811ZM59.453 369.433H108.082C109.342 334.166 110.641 306.988 111.9 288.666C113.16 270.462 111.9 251.845 108.181 233.287H69.6866C64.1762 252.376 64.5108 273.828 64.7666 291.087C64.8257 294.708 64.8847 298.113 64.8847 301.36C64.8847 313.994 63.0545 336.902 59.453 369.433Z" fill="#1D1D2C"/>
<path d="M71.6542 249.798C71.3196 249.798 71.0244 249.562 70.985 249.227C70.926 248.854 71.1818 248.499 71.5558 248.44C77.5778 247.437 82.2026 244.071 85.2924 238.443C85.4695 238.108 85.9025 237.99 86.237 238.167C86.5716 238.344 86.6897 238.777 86.5126 239.112C83.2063 245.134 78.2469 248.716 71.7919 249.798C71.7329 249.798 71.6935 249.798 71.6542 249.798Z" fill="#1D1D2C"/>
<path fill-rule="evenodd" clip-rule="evenodd" d="M131.994 138.193C119.832 142.188 107.591 141.775 95.3106 136.953C81.8692 131.679 68.349 134.434 54.7305 145.179L74.8041 206.837C66.1252 222.6 63.4881 231.575 66.873 233.779C71.9505 237.085 137.76 237.242 146.971 233.779C151.103 232.224 147.187 217.366 146.971 189.085C146.912 179.875 148.25 162.872 151.005 138.055L139.532 137.229C136.993 137.091 134.434 137.406 131.994 138.193Z" fill="#F9BD1D"/>
<path d="M114.919 127.833C123.397 127.833 130.269 120.961 130.269 112.483C130.269 104.005 123.397 97.1326 114.919 97.1326C106.441 97.1326 99.5684 104.005 99.5684 112.483C99.5684 120.961 106.441 127.833 114.919 127.833Z" fill="white"/>
<path d="M114.918 128.522C113.107 128.522 111.257 128.207 109.447 127.558C101.142 124.527 96.8517 115.317 99.8627 107.012C101.319 102.997 104.271 99.7697 108.148 97.9592C112.025 96.1486 116.374 95.9518 120.409 97.4278C128.714 100.459 133.004 109.669 129.993 117.974C127.631 124.468 121.452 128.522 114.918 128.522ZM114.918 97.8214C112.812 97.8214 110.706 98.2741 108.738 99.199C105.196 100.852 102.5 103.784 101.162 107.465C98.4064 115.061 102.323 123.484 109.919 126.239C113.599 127.578 117.575 127.4 121.117 125.747C124.66 124.094 127.356 121.162 128.694 117.482C131.449 109.885 127.533 101.462 119.936 98.707C118.303 98.1166 116.61 97.8214 114.918 97.8214Z" fill="#1D1D2C"/>
<path fill-rule="evenodd" clip-rule="evenodd" d="M99.7245 113.113C103.385 114.274 106.888 114.038 110.234 112.385C115.252 109.905 119.542 109.334 123.616 112.955C126.332 115.376 128.379 116.576 129.756 116.557C133.18 121.615 134.538 124.881 133.83 126.377C133.121 127.873 131.744 128.384 129.677 127.912C129.599 131.356 128.674 133.344 126.922 133.836C125.171 134.328 123.616 133.698 122.258 131.927C120.94 134.446 119.326 135.705 117.397 135.705C115.468 135.725 113.855 134.466 112.576 131.986C109.604 134.249 107.38 134.918 105.904 133.974C104.428 133.029 103.68 131.632 103.66 129.782C100.669 130.943 98.6618 130.943 97.6581 129.821C96.6544 128.699 96.6741 127.341 97.6778 125.767C94.1747 126.889 92.2461 126.751 91.8722 125.354C91.4983 123.956 91.9706 122.54 93.2695 121.083C91.8919 119.824 91.6163 118.525 92.5019 117.206C93.4072 115.888 95.7885 114.51 99.7245 113.113Z" fill="white"/>
<path d="M117.398 136.414C115.41 136.414 113.717 135.273 112.379 133.009C109.447 135.095 107.203 135.607 105.55 134.544C104.133 133.639 103.307 132.36 103.071 130.726C100.217 131.671 98.2883 131.514 97.1862 130.274C96.5368 129.546 95.9661 128.404 96.4384 126.849C94.5097 127.322 93.1518 127.322 92.2662 126.849C91.7545 126.574 91.4003 126.121 91.2429 125.551C90.8493 124.094 91.2232 122.618 92.3843 121.142C90.8493 119.43 91.2822 117.875 91.971 116.852C92.9353 115.376 95.3953 113.959 99.4888 112.483C99.6265 112.424 99.784 112.424 99.9414 112.483C103.405 113.585 106.77 113.369 109.939 111.794C114.19 109.689 119.208 108.134 124.089 112.463C127.297 115.317 128.95 115.907 129.757 115.888C129.993 115.888 130.19 116.006 130.327 116.183C135.129 123.268 134.991 125.57 134.46 126.672C133.929 127.794 132.787 129.014 130.347 128.719C130.131 132.006 129.048 133.954 127.139 134.485C125.388 134.997 123.794 134.525 122.396 133.108C121.038 135.273 119.385 136.394 117.437 136.394C117.417 136.414 117.398 136.414 117.398 136.414ZM112.596 131.297C112.655 131.297 112.694 131.297 112.753 131.317C112.95 131.356 113.127 131.494 113.206 131.671C114.367 133.934 115.744 135.017 117.378 135.017H117.398C119.07 134.997 120.448 133.895 121.648 131.592C121.767 131.376 121.963 131.238 122.199 131.218C122.436 131.199 122.672 131.297 122.81 131.494C123.99 133.029 125.289 133.58 126.746 133.167C128.163 132.753 128.91 130.982 128.989 127.893C128.989 127.696 129.087 127.499 129.265 127.361C129.422 127.243 129.639 127.184 129.835 127.243C132.118 127.755 132.846 126.83 133.201 126.082C133.535 125.393 133.456 123.327 129.363 117.226C127.828 117.049 125.801 115.809 123.144 113.467C119.7 110.417 116.04 110.279 110.51 112.995C107.085 114.687 103.444 114.963 99.7053 113.821C95.1985 115.474 93.6045 116.773 93.0928 117.58C92.6401 118.269 92.3056 119.253 93.7619 120.572C94.0374 120.827 94.0571 121.26 93.8013 121.536C92.6401 122.815 92.2269 123.996 92.5417 125.157C92.6008 125.373 92.6992 125.511 92.896 125.61C93.3093 125.826 94.4507 126.062 97.4814 125.078C97.7569 124.98 98.0521 125.078 98.2293 125.314C98.4064 125.551 98.4261 125.865 98.2686 126.102C97.1665 127.814 97.6782 128.758 98.1899 129.329C99.1739 130.431 101.575 129.821 103.425 129.113C103.641 129.034 103.877 129.054 104.055 129.191C104.251 129.309 104.35 129.526 104.35 129.762C104.35 131.376 104.979 132.557 106.259 133.383C107.754 134.348 110.293 132.852 112.143 131.435C112.3 131.356 112.458 131.297 112.596 131.297Z" fill="#1D1D2C"/>
<path d="M121.315 120.65C121.098 120.65 120.882 120.552 120.744 120.335C120.035 119.273 119.248 118.663 118.402 118.525C117.477 118.367 116.395 118.781 115.174 119.706C114.879 119.942 114.446 119.883 114.21 119.588C113.974 119.292 114.033 118.859 114.328 118.623C115.863 117.442 117.3 116.95 118.618 117.167C119.858 117.364 120.96 118.171 121.885 119.568C122.102 119.883 122.003 120.316 121.689 120.532C121.57 120.611 121.433 120.65 121.315 120.65Z" fill="#1D1D2C"/>
<path fill-rule="evenodd" clip-rule="evenodd" d="M150.769 90.3312C154.567 90.3312 157.657 93.4209 157.657 97.2389V106.548C157.657 107.02 158.03 107.394 158.503 107.394H163.147C166.945 107.394 170.035 110.483 170.035 114.301V118.218C170.035 119.891 168.677 121.248 167.005 121.248C165.332 121.248 163.974 119.891 163.974 118.218V114.301C163.974 113.829 163.6 113.455 163.128 113.455H158.503C154.705 113.455 151.615 110.365 151.615 106.548V97.2389C151.615 96.7665 151.241 96.3926 150.769 96.3926H138.429C136.756 96.3926 135.398 95.0347 135.398 93.3619C135.398 91.6891 136.756 90.3312 138.429 90.3312H150.769Z" fill="white"/>
<path d="M167.004 121.918C164.957 121.918 163.284 120.245 163.284 118.198V114.282C163.284 114.203 163.206 114.124 163.127 114.124H158.502C154.33 114.124 150.925 110.72 150.925 106.528V97.2192C150.925 97.1404 150.847 97.0617 150.768 97.0617H138.429C136.382 97.0617 134.709 95.3889 134.709 93.3422C134.709 91.2955 136.382 89.6227 138.429 89.6227H150.768C154.94 89.6227 158.345 93.0273 158.345 97.2192V106.528C158.345 106.607 158.423 106.685 158.502 106.685H163.147C167.319 106.685 170.723 110.09 170.723 114.282V118.198C170.723 120.245 169.051 121.918 167.004 121.918ZM138.429 91.02C137.149 91.02 136.087 92.063 136.087 93.3619C136.087 94.6608 137.13 95.7038 138.429 95.7038H150.768C151.614 95.7038 152.303 96.3926 152.303 97.2388V106.547C152.303 109.972 155.078 112.766 158.502 112.766H163.147C163.993 112.766 164.682 113.455 164.682 114.301V118.218C164.682 119.497 165.725 120.56 167.024 120.56C168.303 120.56 169.365 119.517 169.365 118.218V114.301C169.365 110.877 166.591 108.083 163.166 108.083H158.541C157.695 108.083 157.006 107.394 157.006 106.547V97.2388C157.006 93.8145 154.232 91.02 150.807 91.02H138.429Z" fill="#1D1D2C"/>
<path fill-rule="evenodd" clip-rule="evenodd" d="M181.253 74.1936C182.769 74.1936 184.008 75.5909 184.008 77.3227V118.08C184.008 119.812 182.769 121.209 181.253 121.209C179.738 121.209 178.498 119.812 178.498 118.08V77.3227C178.498 75.5909 179.738 74.1936 181.253 74.1936Z" fill="white"/>
<path d="M181.253 121.918C179.363 121.918 177.809 120.205 177.809 118.1V77.3227C177.809 75.2169 179.363 73.5048 181.253 73.5048C183.142 73.5048 184.697 75.2169 184.697 77.3227V118.08C184.697 120.205 183.142 121.918 181.253 121.918ZM181.253 74.8824C180.111 74.8824 179.186 75.9844 179.186 77.3227V118.08C179.186 119.438 180.111 120.52 181.253 120.52C182.394 120.52 183.319 119.418 183.319 118.08V77.3227C183.319 75.9844 182.394 74.8824 181.253 74.8824Z" fill="#1D1D2C"/>
<path fill-rule="evenodd" clip-rule="evenodd" d="M213.706 83.0496C215.241 83.0496 216.481 84.2894 216.481 85.8244V96.1958C216.481 101.47 212.21 105.741 206.936 105.741H201.406C199.202 105.741 197.431 107.531 197.431 109.736V118.237C197.431 119.772 196.191 121.012 194.656 121.012C193.121 121.012 191.881 119.772 191.881 118.237V109.736C191.881 104.461 196.151 100.191 201.426 100.191H206.956C209.16 100.191 210.931 98.4 210.931 96.1958V85.8244C210.931 84.2894 212.171 83.0496 213.706 83.0496Z" fill="white"/>
<path d="M194.655 121.721C192.746 121.721 191.191 120.166 191.191 118.257V109.755C191.191 104.107 195.777 99.5218 201.425 99.5218H206.955C208.766 99.5218 210.242 98.0458 210.242 96.2155V85.8442C210.242 83.9352 211.796 82.3805 213.705 82.3805C215.614 82.3805 217.169 83.9352 217.169 85.8442V96.2155C217.169 101.864 212.584 106.449 206.935 106.449H201.405C199.595 106.449 198.119 107.925 198.119 109.755V118.257C198.119 120.166 196.564 121.721 194.655 121.721ZM201.425 100.88C196.544 100.88 192.569 104.855 192.569 109.736V118.237C192.569 119.399 193.514 120.324 194.655 120.324C195.816 120.324 196.741 119.379 196.741 118.237V109.736C196.741 107.158 198.847 105.052 201.405 105.052H206.935C211.816 105.052 215.791 101.076 215.791 96.1959V85.8245C215.791 84.6634 214.847 83.7384 213.705 83.7384C212.544 83.7384 211.619 84.6831 211.619 85.8245V96.1959C211.619 98.7739 209.513 100.88 206.955 100.88H201.425Z" fill="#1D1D2C"/>
<path fill-rule="evenodd" clip-rule="evenodd" d="M233.404 248.007V312.833H234.703C245.566 312.833 254.383 321.65 254.383 332.513V337.02H210.89V259.422C210.89 254.423 206.836 250.369 201.837 250.369H200.971C195.5 250.369 191.053 245.921 191.053 240.45V239.348C191.053 233.267 195.992 228.327 202.074 228.327H213.724C224.587 228.327 233.404 237.144 233.404 248.007Z" fill="white"/>
<path d="M255.073 337.709H210.203V259.422C210.203 254.817 206.444 251.058 201.839 251.058H200.973C195.128 251.058 190.365 246.295 190.365 240.45V239.348C190.365 232.893 195.62 227.639 202.075 227.639H213.725C224.963 227.639 234.094 236.77 234.094 248.007V312.144H234.704C245.942 312.144 255.073 321.276 255.073 332.513V337.709ZM211.58 336.331H253.695V332.513C253.695 322.044 245.174 313.522 234.704 313.522H232.717V248.007C232.717 237.538 224.195 229.016 213.725 229.016H202.075C196.368 229.016 191.743 233.661 191.743 239.348V240.45C191.743 245.547 195.876 249.68 200.973 249.68H201.839C207.211 249.68 211.58 254.049 211.58 259.422V336.331Z" fill="#1D1D2C"/>
<path fill-rule="evenodd" clip-rule="evenodd" d="M280.774 183.103C279.593 163.541 262.747 148.663 243.185 149.844L237.005 150.217C230.747 150.591 225.985 155.964 226.358 162.222C226.732 168.48 232.125 173.243 238.383 172.849L244.562 172.476C251.628 172.043 257.689 177.415 258.122 184.461C258.142 184.736 258.142 185.012 258.142 185.287L257.906 251.747C257.886 258.005 262.944 263.102 269.222 263.122C275.499 263.141 280.597 258.084 280.616 251.825L280.852 185.366C280.833 184.598 280.813 183.851 280.774 183.103Z" fill="white"/>
<path d="M269.241 263.81C269.221 263.81 269.221 263.81 269.202 263.81C265.994 263.791 262.963 262.531 260.7 260.248C258.437 257.965 257.197 254.935 257.197 251.727L257.433 185.268C257.433 185.012 257.433 184.756 257.413 184.5C257 177.848 251.254 172.751 244.582 173.145L238.403 173.519C238.147 173.538 237.911 173.538 237.674 173.538C231.357 173.538 226.044 168.618 225.67 162.242C225.473 159.034 226.536 155.944 228.681 153.543C230.806 151.142 233.758 149.706 236.966 149.509L243.145 149.135C263.062 147.935 280.262 163.147 281.482 183.044C281.521 183.811 281.541 184.579 281.541 185.346L281.305 251.806C281.266 258.438 275.873 263.81 269.241 263.81ZM245.33 171.767C252.395 171.767 258.358 177.297 258.791 184.421C258.811 184.716 258.811 184.992 258.811 185.287L258.575 251.747C258.575 254.6 259.657 257.277 261.664 259.284C263.672 261.311 266.348 262.413 269.202 262.433C269.221 262.433 269.221 262.433 269.241 262.433C275.106 262.433 279.888 257.67 279.908 251.825L280.144 185.366C280.144 184.618 280.124 183.87 280.085 183.142C278.924 163.993 262.393 149.371 243.224 150.532L237.045 150.906C234.191 151.083 231.593 152.343 229.704 154.468C227.815 156.594 226.87 159.329 227.047 162.183C227.401 168.048 232.479 172.535 238.344 172.18L244.523 171.806C244.779 171.767 245.054 171.767 245.33 171.767Z" fill="#1D1D2C"/>
<path fill-rule="evenodd" clip-rule="evenodd" d="M274.694 285.34V271.348C274.694 267.786 271.821 264.912 268.258 264.912C264.696 264.912 261.823 267.786 261.823 271.348V285.34H246.729V269.498C246.729 258.635 255.545 249.818 266.409 249.818H270.64C281.503 249.818 290.32 258.635 290.32 269.498V285.34H274.694Z" fill="white"/>
<path d="M290.988 286.029H274.004V271.348C274.004 268.179 271.426 265.601 268.258 265.601C265.089 265.601 262.511 268.179 262.511 271.348V286.029H246.039V269.498C246.039 258.261 255.171 249.129 266.408 249.129H270.639C281.876 249.129 291.008 258.261 291.008 269.498V286.029H290.988ZM275.382 284.652H289.611V269.498C289.611 259.028 281.089 250.507 270.619 250.507H266.388C255.918 250.507 247.397 259.028 247.397 269.498V284.652H261.114V271.348C261.114 267.412 264.302 264.224 268.238 264.224C272.174 264.224 275.362 267.412 275.362 271.348V284.652H275.382Z" fill="#1D1D2C"/>
<path fill-rule="evenodd" clip-rule="evenodd" d="M159.782 212.15H178.182C182.197 212.15 185.464 215.417 185.464 219.432V249.838H152.5V219.432C152.5 215.398 155.747 212.15 159.782 212.15Z" fill="white"/>
<path d="M186.152 250.526H151.811V219.432C151.811 215.043 155.392 211.462 159.781 211.462H178.182C182.57 211.462 186.152 215.043 186.152 219.432V250.526ZM153.188 249.149H184.775V219.432C184.775 215.791 181.823 212.839 178.182 212.839H159.781C156.14 212.839 153.188 215.791 153.188 219.432V249.149Z" fill="#1D1D2C"/>
<path fill-rule="evenodd" clip-rule="evenodd" d="M173.44 212.15H191.841C195.855 212.15 199.122 215.417 199.122 219.432V249.838H166.158V219.432C166.158 215.398 169.405 212.15 173.44 212.15Z" fill="white"/>
<path d="M199.81 250.526H165.469V219.432C165.469 215.043 169.051 211.462 173.439 211.462H191.84C196.229 211.462 199.81 215.043 199.81 219.432V250.526ZM166.846 249.149H198.433V219.432C198.433 215.791 195.481 212.839 191.84 212.839H173.439C169.798 212.839 166.846 215.791 166.846 219.432V249.149Z" fill="#1D1D2C"/>
<path fill-rule="evenodd" clip-rule="evenodd" d="M164.8 118.159H187.019C192.667 118.159 197.252 122.744 197.252 128.392V144.648C197.252 150.296 192.667 154.882 187.019 154.882H164.8C159.152 154.882 154.566 150.296 154.566 144.648V128.392C154.566 122.744 159.152 118.159 164.8 118.159Z" fill="white"/>
<path d="M187.02 155.57H164.801C158.779 155.57 153.879 150.67 153.879 144.648V128.392C153.879 122.37 158.779 117.47 164.801 117.47H187.02C193.042 117.47 197.942 122.37 197.942 128.392V144.648C197.942 150.67 193.042 155.57 187.02 155.57ZM164.801 118.848C159.547 118.848 155.257 123.138 155.257 128.392V144.648C155.257 149.903 159.547 154.193 164.801 154.193H187.02C192.275 154.193 196.565 149.903 196.565 144.648V128.392C196.565 123.138 192.275 118.848 187.02 118.848H164.801Z" fill="#1D1D2C"/>
<path fill-rule="evenodd" clip-rule="evenodd" d="M177.159 118.159H199.378C205.026 118.159 209.612 122.744 209.612 128.392V144.648C209.612 150.296 205.026 154.882 199.378 154.882H177.159C171.511 154.882 166.926 150.296 166.926 144.648V128.392C166.926 122.744 171.511 118.159 177.159 118.159Z" fill="white"/>
<path d="M199.377 155.57H177.159C171.137 155.57 166.236 150.67 166.236 144.648V128.392C166.236 122.37 171.137 117.47 177.159 117.47H199.377C205.4 117.47 210.3 122.37 210.3 128.392V144.648C210.3 150.67 205.4 155.57 199.377 155.57ZM177.159 118.848C171.904 118.848 167.614 123.138 167.614 128.392V144.648C167.614 149.903 171.904 154.193 177.159 154.193H199.377C204.632 154.193 208.922 149.903 208.922 144.648V128.392C208.922 123.138 204.632 118.848 199.377 118.848H177.159Z" fill="#1D1D2C"/>
<path fill-rule="evenodd" clip-rule="evenodd" d="M126.739 139.905H204.849C210.498 139.905 215.083 144.491 215.083 150.139V214.473C215.083 220.121 210.498 224.706 204.849 224.706H126.739C121.091 224.706 116.506 220.121 116.506 214.473V150.139C116.506 144.491 121.072 139.905 126.739 139.905Z" fill="white"/>
<path d="M204.829 225.395H126.739C120.717 225.395 115.816 220.495 115.816 214.473V150.139C115.816 144.117 120.717 139.216 126.739 139.216H204.849C210.871 139.216 215.771 144.117 215.771 150.139V214.473C215.751 220.495 210.851 225.395 204.829 225.395ZM126.739 140.594C121.484 140.594 117.194 144.884 117.194 150.139V214.473C117.194 219.727 121.484 224.017 126.739 224.017H204.849C210.103 224.017 214.394 219.727 214.394 214.473V150.139C214.394 144.884 210.103 140.594 204.849 140.594H126.739Z" fill="#1D1D2C"/>
<path fill-rule="evenodd" clip-rule="evenodd" d="M149.687 139.905H227.797C233.445 139.905 238.03 144.491 238.03 150.139V214.473C238.03 220.121 233.445 224.706 227.797 224.706H149.687C144.039 224.706 139.453 220.121 139.453 214.473V150.139C139.453 144.491 144.039 139.905 149.687 139.905Z" fill="white"/>
<path d="M227.776 225.395H149.686C143.664 225.395 138.764 220.495 138.764 214.473V150.139C138.764 144.117 143.664 139.216 149.686 139.216H227.796C233.818 139.216 238.718 144.117 238.718 150.139V214.473C238.699 220.495 233.798 225.395 227.776 225.395ZM149.686 140.594C144.432 140.594 140.141 144.884 140.141 150.139V214.473C140.141 219.727 144.432 224.017 149.686 224.017H227.796C233.051 224.017 237.341 219.727 237.341 214.473V150.139C237.341 144.884 233.051 140.594 227.796 140.594H149.686Z" fill="#1D1D2C"/>
<path fill-rule="evenodd" clip-rule="evenodd" d="M170.743 160.431H206.718C212.367 160.431 216.952 165.017 216.952 170.665V198.768C216.952 204.416 212.367 209.002 206.718 209.002H170.743C165.095 209.002 160.51 204.416 160.51 198.768V170.665C160.51 165.017 165.095 160.431 170.743 160.431Z" fill="white"/>
<path d="M206.718 209.69H170.743C164.721 209.69 159.82 204.79 159.82 198.768V170.665C159.82 164.643 164.721 159.743 170.743 159.743H206.718C212.74 159.743 217.64 164.643 217.64 170.665V198.768C217.64 204.79 212.74 209.69 206.718 209.69ZM170.743 161.12C165.488 161.12 161.198 165.41 161.198 170.665V198.768C161.198 204.023 165.488 208.313 170.743 208.313H206.718C211.972 208.313 216.263 204.023 216.263 198.768V170.665C216.263 165.41 211.972 161.12 206.718 161.12H170.743Z" fill="#1D1D2C"/>
<path d="M180.526 194.498C185.863 194.498 190.189 190.171 190.189 184.835C190.189 179.498 185.863 175.172 180.526 175.172C175.189 175.172 170.863 179.498 170.863 184.835C170.863 190.171 175.189 194.498 180.526 194.498Z" fill="white"/>
<path d="M180.526 195.186C174.818 195.186 170.174 190.542 170.174 184.835C170.174 179.127 174.818 174.483 180.526 174.483C186.233 174.483 190.877 179.127 190.877 184.835C190.877 190.542 186.233 195.186 180.526 195.186ZM180.526 175.861C175.586 175.861 171.551 179.895 171.551 184.835C171.551 189.774 175.586 193.809 180.526 193.809C185.465 193.809 189.5 189.774 189.5 184.835C189.5 179.895 185.465 175.861 180.526 175.861Z" fill="#1D1D2C"/>
<path d="M208.274 180.485H196.466C196.092 180.485 195.777 180.17 195.777 179.796C195.777 179.423 196.092 179.108 196.466 179.108H208.274C208.648 179.108 208.963 179.423 208.963 179.796C208.963 180.17 208.668 180.485 208.274 180.485Z" fill="#1D1D2C"/>
<path d="M208.274 189.42H196.466C196.092 189.42 195.777 189.105 195.777 188.731C195.777 188.357 196.092 188.042 196.466 188.042H208.274C208.648 188.042 208.963 188.357 208.963 188.731C208.963 189.105 208.668 189.42 208.274 189.42Z" fill="#1D1D2C"/>
<path fill-rule="evenodd" clip-rule="evenodd" d="M81.3383 183.103C82.5191 163.541 99.3652 148.663 118.927 149.844L125.107 150.217C131.365 150.591 136.127 155.964 135.754 162.222C135.38 168.48 129.987 173.243 123.729 172.849L117.55 172.476C110.484 172.043 104.423 177.415 103.99 184.461C103.97 184.736 103.97 185.012 103.97 185.287L104.206 251.747C104.226 258.005 99.1684 263.102 92.8905 263.122C86.6126 263.141 81.5155 258.084 81.4958 251.825L81.2793 185.366C81.2793 184.598 81.299 183.851 81.3383 183.103Z" fill="white"/>
<path d="M92.8702 263.81C86.2577 263.81 80.8457 258.438 80.826 251.825L80.5898 185.366C80.5898 184.598 80.6095 183.811 80.6489 183.063C81.869 163.147 99.0497 147.935 118.986 149.135L125.165 149.509C128.373 149.706 131.325 151.142 133.45 153.543C135.576 155.944 136.658 159.034 136.461 162.242C136.068 168.854 130.341 173.932 123.709 173.519L117.529 173.145C110.858 172.751 105.111 177.828 104.698 184.5C104.678 184.756 104.678 185.012 104.678 185.268L104.914 251.727C104.934 258.359 99.5614 263.771 92.9095 263.791C92.8898 263.81 92.8702 263.81 92.8702 263.81ZM116.762 150.454C98.5183 150.454 83.1482 164.702 82.0265 183.142C81.9871 183.87 81.9674 184.618 81.9674 185.366L82.2036 251.825C82.2233 257.69 87.0055 262.433 92.8702 262.433C92.8898 262.433 92.8898 262.433 92.9095 262.433C98.7938 262.413 103.556 257.611 103.537 251.747L103.301 185.287C103.301 184.992 103.301 184.716 103.32 184.421C103.773 177.002 110.189 171.334 117.608 171.787L123.787 172.161C129.652 172.515 134.73 168.028 135.084 162.163C135.261 159.329 134.316 156.594 132.427 154.449C130.538 152.323 127.94 151.044 125.086 150.887L118.907 150.513C118.179 150.473 117.47 150.454 116.762 150.454Z" fill="#1D1D2C"/>
<path fill-rule="evenodd" clip-rule="evenodd" d="M87.2822 285.34V271.348C87.2822 267.786 90.1555 264.913 93.7175 264.913C97.2796 264.913 100.153 267.786 100.153 271.348V285.34H115.247V269.498C115.247 258.635 106.431 249.818 95.5674 249.818H91.3363C80.4729 249.818 71.6562 258.635 71.6562 269.498V285.34H87.2822Z" fill="white"/>
<path d="M115.955 286.029H99.4828V271.348C99.4828 268.179 96.9047 265.601 93.7363 265.601C90.5678 265.601 87.9897 268.179 87.9897 271.348V286.029H71.0059V269.498C71.0059 258.261 80.1374 249.129 91.3747 249.129H95.6059C106.843 249.129 115.975 258.261 115.975 269.498V286.029H115.955ZM100.841 284.652H114.558V269.498C114.558 259.028 106.036 250.507 95.5665 250.507H91.3353C80.8655 250.507 72.3441 259.028 72.3441 269.498V284.652H86.5924V271.348C86.5924 267.412 89.7806 264.224 93.7166 264.224C97.6526 264.224 100.841 267.412 100.841 271.348V284.652Z" fill="#1D1D2C"/>
<path fill-rule="evenodd" clip-rule="evenodd" d="M120.225 248.007V312.833H118.926C108.063 312.833 99.2461 321.65 99.2461 332.513V337.02H142.739V259.422C142.739 254.423 146.793 250.369 151.792 250.369H152.658C158.129 250.369 162.576 245.921 162.576 240.45V239.348C162.576 233.267 157.637 228.327 151.556 228.327H139.905C129.042 228.327 120.225 237.144 120.225 248.007Z" fill="white"/>
<path d="M143.427 337.709H98.5566V332.513C98.5566 321.276 107.688 312.144 118.925 312.144H119.536V248.007C119.536 236.77 128.667 227.639 139.904 227.639H151.555C158.01 227.639 163.264 232.893 163.264 239.348V240.45C163.264 246.295 158.502 251.058 152.657 251.058H151.791C147.186 251.058 143.427 254.817 143.427 259.422V337.709ZM99.9342 336.331H142.049V259.422C142.049 254.049 146.418 249.68 151.791 249.68H152.657C157.754 249.68 161.887 245.547 161.887 240.45V239.348C161.887 233.641 157.242 229.016 151.555 229.016H139.904C129.435 229.016 120.913 237.538 120.913 248.007V313.522H118.925C108.456 313.522 99.9342 322.044 99.9342 332.513V336.331Z" fill="#1D1D2C"/>
<path fill-rule="evenodd" clip-rule="evenodd" d="M31.7643 176.254L14.3081 216.185C10.3918 225.139 14.4852 235.589 23.4396 239.506C27.0214 241.06 30.9967 241.415 34.795 240.47L113.869 220.888V189.912L57.2695 198.551L62.2683 185.366L31.7643 176.254Z" fill="white"/>
<path d="M30.564 241.67C28.0253 241.67 25.5062 241.159 23.184 240.135C13.895 236.062 9.62446 225.198 13.6982 215.909L31.1544 175.979C31.2921 175.664 31.6464 175.487 31.9809 175.585L62.4849 184.697C62.6621 184.756 62.8195 184.874 62.8982 185.051C62.9769 185.228 62.9966 185.425 62.9179 185.602L58.3325 197.686L113.771 189.223C113.968 189.184 114.165 189.243 114.322 189.381C114.48 189.518 114.558 189.695 114.558 189.912V220.888C114.558 221.203 114.342 221.479 114.027 221.557L34.9526 241.139C33.516 241.493 32.04 241.67 30.564 241.67ZM32.1581 177.081L14.9381 216.46C11.1792 225.06 15.1152 235.117 23.7153 238.876C27.1397 240.372 31.0166 240.706 34.6181 239.801L113.181 220.357V190.719L57.3681 199.24C57.132 199.28 56.8761 199.181 56.7187 198.984C56.5613 198.788 56.5219 198.532 56.6006 198.315L61.3435 185.819L32.1581 177.081Z" fill="#1D1D2C"/>
<path fill-rule="evenodd" clip-rule="evenodd" d="M54.7294 145.199C54.7294 145.199 35.876 160.628 28.7715 177.356L62.6604 188.2L75.0588 169.937C61.4993 153.445 54.7294 145.199 54.7294 145.199Z" fill="#F9BD1D"/>
<path fill-rule="evenodd" clip-rule="evenodd" d="M91.1387 195.659L96.2555 192.785C97.7905 188.534 100.191 185.504 103.439 183.713C108.319 181.017 107.375 171.078 113.653 171.078C117.844 171.078 118.986 176.116 117.097 186.212C124.122 185.484 130.184 183.673 135.281 180.78C142.936 176.451 144.668 185.641 140.968 188.2C144.629 189.794 145.101 192.47 142.366 196.229C145.711 198.335 145.908 201.208 142.936 204.849C145.554 207.211 145.357 209.848 142.366 212.8C139.374 215.752 126.071 219.767 101.963 223.742L91.1387 195.659Z" fill="white"/>
<path d="M101.943 224.431C101.608 224.431 101.313 224.195 101.274 223.86C101.215 223.486 101.47 223.132 101.844 223.073C123.728 219.471 138.705 215.457 141.873 212.328C143.349 210.871 144.097 209.513 144.058 208.293C144.038 207.289 143.507 206.325 142.464 205.38L141.972 204.948L142.385 204.436C143.861 202.625 144.491 201.051 144.274 199.732C144.097 198.65 143.33 197.686 141.972 196.82L141.342 196.426L141.775 195.836C143.113 194.005 143.625 192.47 143.31 191.29C143.035 190.306 142.149 189.479 140.673 188.849L139.532 188.338L140.555 187.629C142.188 186.507 142.641 183.575 141.48 181.725C140.397 179.993 138.252 179.875 135.596 181.371C130.439 184.284 124.22 186.133 117.136 186.881L116.211 186.98L116.388 186.074C117.687 179.147 117.529 174.68 115.955 172.79C115.384 172.102 114.617 171.767 113.613 171.767C110.563 171.767 109.46 174.522 108.201 177.691C107.158 180.308 106.095 183.004 103.734 184.303C100.644 186.015 98.3413 188.948 96.8653 193.002L96.7865 193.238L91.4533 196.249C91.1187 196.426 90.7054 196.328 90.5086 195.993C90.3315 195.659 90.4299 195.245 90.7645 195.048L95.6648 192.293C97.2589 188.023 99.7385 184.933 103.064 183.103C104.993 182.04 105.957 179.58 106.902 177.179C108.221 173.833 109.598 170.37 113.593 170.37C115.01 170.37 116.152 170.881 116.998 171.885C118.789 174.05 119.084 178.478 117.884 185.405C124.398 184.618 130.105 182.867 134.887 180.17C139.846 177.376 142.051 180.092 142.621 180.997C143.979 183.162 143.684 186.232 142.129 188.023C143.468 188.79 144.294 189.755 144.609 190.896C145.003 192.352 144.55 194.084 143.271 196.032C144.609 197.016 145.396 198.178 145.593 199.476C145.849 201.071 145.239 202.842 143.802 204.77C144.825 205.853 145.376 207.014 145.396 208.214C145.436 209.828 144.55 211.54 142.798 213.272C139.374 216.637 124.516 220.692 102.021 224.411C102.002 224.431 101.962 224.431 101.943 224.431Z" fill="#1D1D2C"/>
<path d="M123.256 196.151C122.941 196.151 122.665 195.934 122.586 195.619C122.508 195.245 122.724 194.871 123.098 194.793C129.691 193.277 135.556 191.014 140.535 188.101C140.869 187.905 141.282 188.023 141.479 188.357C141.676 188.692 141.558 189.105 141.223 189.302C136.126 192.293 130.124 194.596 123.393 196.151C123.354 196.151 123.315 196.151 123.256 196.151Z" fill="#1D1D2C"/>
<path d="M124.713 204.377C124.398 204.377 124.122 204.16 124.043 203.845C123.965 203.472 124.181 203.098 124.555 203.019C131.148 201.504 137.013 199.24 141.992 196.328C142.326 196.131 142.739 196.249 142.936 196.584C143.133 196.918 143.015 197.331 142.68 197.528C137.583 200.52 131.581 202.822 124.85 204.377C124.811 204.377 124.752 204.377 124.713 204.377Z" fill="#1D1D2C"/>
<path d="M132.446 210.655C132.17 210.655 131.895 210.478 131.796 210.202C131.678 209.848 131.855 209.454 132.209 209.317C134.866 208.372 138.566 206.601 143.211 204.042C143.545 203.865 143.958 203.983 144.155 204.318C144.332 204.652 144.214 205.066 143.88 205.262C139.176 207.86 135.398 209.651 132.662 210.615C132.603 210.635 132.524 210.655 132.446 210.655Z" fill="#1D1D2C"/>
<path fill-rule="evenodd" clip-rule="evenodd" d="M238.895 175.11C242.063 176.153 244.602 179.814 241.217 187.509C251.825 189.437 255.249 193.845 251.47 200.714C254.737 203.292 254.363 206.421 250.349 210.14C252.533 212.62 251.411 215.12 246.964 217.678C244.661 218.997 240.174 218.682 232.026 217.698C231.712 217.658 237.301 174.579 238.895 175.11Z" fill="white"/>
<path d="M242.163 219.233C239.683 219.233 236.396 218.918 231.968 218.386C231.713 218.347 231.476 218.17 231.398 217.914C231.339 217.717 231.26 217.501 232.067 210.928C232.598 206.657 233.287 201.481 233.976 196.738C236.967 175.996 237.951 175.012 238.266 174.677C238.502 174.441 238.817 174.343 239.112 174.441C240.824 175.012 242.163 176.192 242.871 177.806C243.914 180.168 243.678 183.238 242.182 186.977C248.106 188.178 251.668 190.165 253.046 193.039C254.049 195.144 253.813 197.663 252.357 200.537C253.636 201.678 254.305 202.957 254.364 204.335C254.443 206.185 253.439 208.094 251.294 210.2C251.983 211.164 252.258 212.168 252.081 213.171C251.786 214.923 250.231 216.596 247.319 218.268C246.138 218.937 244.524 219.233 242.163 219.233ZM232.756 217.088C240.529 218.012 244.623 218.229 246.63 217.068C249.129 215.631 250.507 214.254 250.723 212.955C250.841 212.187 250.566 211.42 249.838 210.593C249.582 210.318 249.621 209.885 249.877 209.629C251.983 207.68 253.026 205.909 252.967 204.374C252.928 203.252 252.298 202.229 251.038 201.245C250.782 201.029 250.704 200.674 250.861 200.379C252.337 197.703 252.632 195.44 251.786 193.649C250.566 191.09 246.965 189.26 241.08 188.178C240.864 188.138 240.687 188 240.588 187.823C240.49 187.646 240.49 187.41 240.569 187.213C242.182 183.553 242.537 180.483 241.592 178.357C241.021 176.999 239.998 176.291 239.112 175.917C238.522 177.393 237.282 183.454 235.353 196.738C234.015 206.086 232.933 214.824 232.756 217.088Z" fill="#1D1D2C"/>
<path fill-rule="evenodd" clip-rule="evenodd" d="M251.235 214.273C250.96 216.438 248.027 217.973 242.399 218.898C233.976 220.276 226.36 218.249 226.34 214.372C226.32 211.794 230.276 209.747 238.187 208.232L251.235 214.273Z" fill="white"/>
<path d="M237.242 220.02C232.932 220.02 229.193 219.095 227.225 217.422C226.201 216.556 225.67 215.513 225.67 214.372C225.65 211.38 229.724 209.156 238.088 207.562C238.462 207.484 238.816 207.739 238.895 208.113C238.974 208.487 238.718 208.842 238.344 208.92C228.996 210.691 227.048 212.876 227.048 214.372C227.048 215.1 227.422 215.769 228.13 216.379C230.551 218.426 236.396 219.193 242.319 218.229C247.495 217.383 250.349 216.005 250.565 214.195C250.605 213.821 250.959 213.545 251.333 213.604C251.707 213.643 251.982 213.998 251.923 214.372C251.608 216.91 248.538 218.603 242.516 219.587C240.725 219.862 238.934 220.02 237.242 220.02Z" fill="#1D1D2C"/>
<path fill-rule="evenodd" clip-rule="evenodd" d="M253.419 206.303C253.143 208.468 250.211 210.003 244.582 210.928C236.159 212.305 228.543 210.278 228.524 206.401C228.504 203.823 232.46 201.777 240.371 200.261L253.419 206.303Z" fill="white"/>
<path d="M239.425 212.03C235.116 212.03 231.376 211.105 229.408 209.432C228.385 208.566 227.854 207.523 227.854 206.382C227.834 203.39 231.908 201.166 240.272 199.572C240.646 199.494 241 199.749 241.079 200.123C241.157 200.497 240.901 200.852 240.528 200.93C231.18 202.701 229.231 204.886 229.231 206.382C229.231 207.11 229.605 207.779 230.314 208.389C232.734 210.436 238.579 211.203 244.503 210.239C249.679 209.393 252.532 208.015 252.749 206.205C252.788 205.831 253.142 205.555 253.516 205.614C253.89 205.653 254.166 206.008 254.107 206.382C253.792 208.92 250.722 210.613 244.7 211.597C242.889 211.892 241.118 212.03 239.425 212.03Z" fill="#1D1D2C"/>
<path fill-rule="evenodd" clip-rule="evenodd" d="M252.692 197.604C252.417 199.769 249.484 201.304 243.856 202.229C235.433 203.607 227.817 201.58 227.797 197.703C227.777 195.125 231.733 193.078 239.644 191.563L252.692 197.604Z" fill="white"/>
<path d="M238.699 203.331C234.389 203.331 230.65 202.406 228.682 200.733C227.658 199.868 227.127 198.824 227.127 197.683C227.107 194.692 231.181 192.468 239.545 190.874C239.919 190.795 240.273 191.051 240.352 191.425C240.431 191.799 240.175 192.153 239.801 192.232C230.453 194.003 228.505 196.187 228.505 197.683C228.505 198.411 228.879 199.08 229.587 199.69C232.008 201.737 237.853 202.505 243.776 201.54C248.952 200.694 251.806 199.316 252.022 197.506C252.062 197.132 252.416 196.856 252.79 196.916C253.164 196.955 253.439 197.309 253.38 197.683C253.065 200.222 249.995 201.914 243.973 202.898C242.163 203.193 240.391 203.331 238.699 203.331Z" fill="#1D1D2C"/>
<path fill-rule="evenodd" clip-rule="evenodd" d="M304.469 374.711C305.414 375.262 305.728 376.462 305.197 377.407L304.37 378.844C306.358 380.93 307.755 383.468 308.484 386.184L310.176 386.204C311.258 386.224 312.124 387.109 312.105 388.211L312.006 393.82C311.987 394.903 311.081 395.768 309.999 395.749L308.267 395.729C307.893 396.89 307.401 398.012 306.771 399.094C306.063 400.315 305.217 401.436 304.292 402.401L305.177 403.936C305.728 404.88 305.394 406.081 304.449 406.632L299.588 409.446C298.644 409.997 297.443 409.663 296.892 408.718L295.987 407.143C293.389 407.773 290.654 407.773 288.016 407.124L287.091 408.718C286.54 409.663 285.34 409.977 284.395 409.446L279.554 406.651C278.609 406.1 278.294 404.9 278.826 403.955L279.751 402.361C277.783 400.315 276.405 397.835 275.677 395.178L273.866 395.139C272.784 395.119 271.918 394.233 271.938 393.131L272.036 387.523C272.056 386.44 272.961 385.574 274.044 385.594L275.815 385.633C276.189 384.433 276.7 383.252 277.35 382.111C278.039 380.93 278.826 379.867 279.731 378.922L278.865 377.427C278.314 376.482 278.649 375.282 279.593 374.731L284.454 371.916C285.399 371.365 286.599 371.7 287.15 372.644L287.997 374.101C290.634 373.451 293.428 373.412 296.125 374.081L296.951 372.644C297.502 371.7 298.703 371.385 299.647 371.916L304.469 374.711Z" fill="white"/>
<path d="M285.379 410.391C284.926 410.391 284.474 410.273 284.061 410.036L279.219 407.242C277.96 406.514 277.507 404.88 278.255 403.621L278.924 402.479C277.212 400.59 275.933 398.327 275.185 395.867L273.886 395.847C273.178 395.827 272.508 395.552 272.016 395.04C271.524 394.529 271.249 393.859 271.269 393.151C271.269 393.131 271.269 393.112 271.269 393.092L271.367 387.522C271.387 386.066 272.587 384.905 274.024 384.905C274.043 384.905 274.043 384.905 274.063 384.905L275.323 384.925C275.697 383.823 276.189 382.76 276.759 381.756C277.369 380.693 278.078 379.709 278.885 378.804L278.275 377.741C277.546 376.482 277.979 374.849 279.239 374.12L284.1 371.306C285.359 370.578 286.993 371.011 287.721 372.27L288.311 373.294C290.771 372.762 293.31 372.743 295.75 373.274L296.321 372.27C296.675 371.66 297.246 371.208 297.935 371.031C298.624 370.853 299.332 370.932 299.942 371.286L304.784 374.081C305.394 374.435 305.846 375.006 306.023 375.695C306.201 376.384 306.122 377.092 305.768 377.702L305.197 378.706C306.929 380.634 308.247 382.957 308.995 385.456L310.176 385.476C310.884 385.495 311.554 385.771 312.046 386.283C312.538 386.794 312.813 387.463 312.793 388.172C312.793 388.192 312.793 388.211 312.793 388.231L312.695 393.781C312.675 395.237 311.475 396.398 310.038 396.398C310.018 396.398 310.018 396.398 309.999 396.398L308.779 396.378C308.405 397.422 307.952 398.425 307.401 399.39C306.771 400.492 306.023 401.515 305.177 402.46L305.807 403.542C306.535 404.801 306.102 406.435 304.843 407.163L299.982 409.977C299.372 410.332 298.643 410.43 297.974 410.253C297.286 410.076 296.715 409.623 296.361 409.013L295.711 407.891C293.31 408.383 290.811 408.383 288.41 407.891L287.741 409.033C287.386 409.643 286.816 410.095 286.127 410.273C285.851 410.371 285.615 410.391 285.379 410.391ZM272.607 393.19C272.607 393.525 272.745 393.82 272.961 394.056C273.197 394.292 273.512 394.43 273.866 394.45L275.677 394.489C275.972 394.489 276.248 394.706 276.326 395.001C277.054 397.579 278.393 399.98 280.243 401.909C280.459 402.125 280.498 402.46 280.341 402.735L279.416 404.329C279.062 404.939 279.278 405.726 279.888 406.081L284.73 408.875C285.025 409.052 285.379 409.092 285.694 408.993C286.029 408.915 286.304 408.698 286.462 408.403L287.386 406.809C287.544 406.553 287.859 406.415 288.154 406.474C290.653 407.084 293.29 407.084 295.81 406.474C296.105 406.396 296.42 406.533 296.557 406.809L297.463 408.383C297.64 408.678 297.915 408.895 298.23 408.974C298.565 409.052 298.899 409.013 299.194 408.836L304.055 406.022C304.666 405.667 304.882 404.88 304.528 404.27L303.642 402.735C303.485 402.479 303.524 402.125 303.741 401.909C304.666 400.964 305.453 399.882 306.122 398.74C306.712 397.717 307.204 396.615 307.558 395.513C307.657 395.217 307.913 395.04 308.208 395.04C308.208 395.04 308.208 395.04 308.228 395.04L309.959 395.06H309.979C310.668 395.06 311.258 394.509 311.258 393.8L311.357 388.192C311.357 388.172 311.357 388.172 311.357 388.152C311.357 387.818 311.219 387.522 311.002 387.286C310.766 387.05 310.451 386.912 310.097 386.893L308.405 386.873C308.09 386.873 307.834 386.657 307.755 386.361C307.047 383.724 305.689 381.284 303.8 379.316C303.583 379.099 303.544 378.765 303.701 378.489L304.528 377.053C304.705 376.757 304.744 376.403 304.646 376.088C304.567 375.754 304.351 375.478 304.055 375.321L299.273 372.507C298.978 372.329 298.624 372.29 298.309 372.389C297.974 372.467 297.699 372.684 297.541 372.979L296.715 374.416C296.557 374.671 296.262 374.809 295.947 374.75C293.409 374.12 290.712 374.14 288.154 374.77C287.859 374.849 287.544 374.711 287.386 374.455L286.54 372.999C286.186 372.389 285.399 372.172 284.789 372.526L279.908 375.321C279.298 375.675 279.082 376.462 279.436 377.072L280.302 378.568C280.459 378.824 280.42 379.158 280.203 379.395C279.337 380.32 278.57 381.343 277.92 382.465C277.31 383.527 276.799 384.669 276.444 385.85C276.346 386.145 276.07 386.342 275.775 386.342L274.004 386.302H273.984C273.296 386.302 272.725 386.853 272.705 387.562L272.607 393.171C272.607 393.171 272.607 393.171 272.607 393.19Z" fill="#1D1D2C"/>
<path d="M292.069 398.189C296.276 398.189 299.685 394.779 299.685 390.573C299.685 386.367 296.276 382.957 292.069 382.957C287.863 382.957 284.453 386.367 284.453 390.573C284.453 394.779 287.863 398.189 292.069 398.189Z" fill="white"/>
<path d="M292.05 398.878C290.613 398.878 289.196 398.504 287.917 397.756C283.961 395.473 282.584 390.376 284.886 386.42C287.169 382.465 292.266 381.087 296.222 383.39C300.178 385.673 301.555 390.77 299.253 394.725C298.151 396.654 296.36 398.012 294.215 398.583C293.506 398.779 292.778 398.878 292.05 398.878ZM292.089 383.646C289.688 383.646 287.366 384.885 286.087 387.109C284.178 390.415 285.319 394.647 288.626 396.556C291.932 398.465 296.163 397.323 298.072 394.017C299.981 390.711 298.839 386.479 295.533 384.57C294.451 383.941 293.25 383.646 292.089 383.646Z" fill="#1D1D2C"/>
<path fill-rule="evenodd" clip-rule="evenodd" d="M409.342 260.506C410.286 261.057 410.601 262.258 410.07 263.202L408.692 265.584C411.29 268.299 413.101 271.606 414.045 275.128L416.82 275.168C417.903 275.187 418.768 276.073 418.749 277.175L418.591 285.657C418.572 286.74 417.686 287.606 416.584 287.586L413.75 287.546C413.278 289.042 412.628 290.518 411.802 291.935C410.877 293.529 409.794 294.966 408.574 296.245L410.011 298.744C410.562 299.689 410.227 300.89 409.283 301.421L401.962 305.691C401.017 306.243 399.817 305.908 399.266 304.983L397.79 302.425C394.424 303.231 390.862 303.251 387.418 302.425L385.923 305.003C385.371 305.947 384.171 306.262 383.226 305.731L375.905 301.5C374.961 300.949 374.646 299.748 375.177 298.803L376.673 296.225C374.134 293.569 372.324 290.341 371.379 286.877L368.427 286.838C367.345 286.818 366.479 285.933 366.498 284.831L366.656 276.349C366.675 275.266 367.561 274.4 368.663 274.42L371.556 274.459C372.048 272.885 372.698 271.35 373.563 269.874C374.449 268.339 375.492 266.942 376.653 265.721L375.236 263.261C374.685 262.317 375.02 261.116 375.964 260.585L383.305 256.295C384.25 255.744 385.45 256.078 386.001 257.003L387.379 259.404C390.803 258.538 394.424 258.499 397.947 259.365L399.325 256.983C399.876 256.039 401.076 255.724 402.021 256.255L409.342 260.506Z" fill="white"/>
<path d="M384.229 306.656C383.777 306.656 383.324 306.538 382.911 306.302L375.59 302.07C374.98 301.716 374.527 301.145 374.35 300.457C374.173 299.768 374.251 299.059 374.606 298.449L375.845 296.304C373.563 293.805 371.85 290.794 370.886 287.546L368.446 287.507C366.989 287.487 365.809 286.267 365.828 284.811V284.791L365.986 276.329C366.005 274.873 367.226 273.692 368.682 273.711L371.063 273.751C371.555 272.294 372.185 270.858 372.972 269.52C373.779 268.122 374.743 266.804 375.806 265.603L374.645 263.576C373.917 262.317 374.35 260.683 375.609 259.955L382.95 255.704C383.56 255.35 384.288 255.252 384.957 255.429C385.646 255.606 386.217 256.058 386.571 256.669L387.713 258.637C390.96 257.908 394.364 257.889 397.612 258.597L398.733 256.649C399.088 256.039 399.658 255.586 400.347 255.409C401.036 255.232 401.744 255.311 402.354 255.665L409.675 259.896C410.935 260.624 411.388 262.258 410.64 263.517L409.518 265.466C411.84 268.024 413.572 271.094 414.536 274.44L416.8 274.479C418.256 274.499 419.437 275.719 419.417 277.175L419.26 285.657C419.24 287.114 418.039 288.275 416.603 288.275C416.583 288.275 416.563 288.275 416.563 288.275L414.221 288.235C413.749 289.633 413.119 290.99 412.391 292.27C411.545 293.726 410.541 295.104 409.42 296.324L410.6 298.39C411.329 299.65 410.896 301.283 409.636 302.011L402.315 306.282C401.705 306.636 400.977 306.734 400.308 306.557C399.619 306.38 399.048 305.928 398.694 305.318L397.474 303.192C394.286 303.881 390.96 303.881 387.791 303.192L386.551 305.337C386.197 305.947 385.626 306.4 384.938 306.577C384.701 306.636 384.465 306.656 384.229 306.656ZM367.206 284.831C367.206 285.539 367.757 286.11 368.465 286.13L371.417 286.169C371.732 286.169 371.988 286.385 372.067 286.681C373.012 290.085 374.783 293.214 377.203 295.733C377.42 295.95 377.459 296.284 377.302 296.56L375.806 299.138C375.629 299.433 375.59 299.787 375.688 300.102C375.786 300.417 375.983 300.712 376.278 300.87L383.599 305.101C384.209 305.455 384.997 305.239 385.351 304.629L386.847 302.051C387.004 301.795 387.299 301.657 387.614 301.716C390.881 302.523 394.364 302.523 397.671 301.716C397.966 301.637 398.281 301.775 398.438 302.051L399.914 304.609C400.091 304.904 400.367 305.121 400.701 305.199C401.036 305.278 401.37 305.239 401.666 305.062L409.006 300.811C409.616 300.457 409.833 299.669 409.479 299.059L408.042 296.56C407.885 296.284 407.924 295.95 408.14 295.733C409.341 294.474 410.404 293.077 411.269 291.561C412.057 290.203 412.686 288.786 413.159 287.31C413.257 287.015 413.513 286.818 413.828 286.838L416.662 286.877H416.681C417.37 286.877 417.941 286.326 417.961 285.618L418.118 277.136C418.138 276.427 417.567 275.837 416.859 275.837L414.084 275.798C413.769 275.798 413.513 275.581 413.434 275.286C412.509 271.822 410.718 268.614 408.239 266.036C408.022 265.82 407.983 265.485 408.14 265.21L409.518 262.828C409.872 262.218 409.656 261.431 409.046 261.077L401.666 256.885C401.37 256.708 401.016 256.669 400.701 256.767C400.367 256.846 400.091 257.062 399.934 257.357L398.556 259.739C398.399 259.994 398.084 260.132 397.789 260.073C394.443 259.266 390.901 259.266 387.555 260.113C387.26 260.191 386.945 260.054 386.788 259.798L385.41 257.397C385.233 257.102 384.957 256.885 384.623 256.806C384.288 256.708 383.954 256.767 383.658 256.944L376.298 261.156C375.688 261.51 375.472 262.297 375.826 262.907L377.243 265.347C377.4 265.603 377.361 265.938 377.144 266.174C376.003 267.394 374.999 268.752 374.153 270.208C373.346 271.625 372.697 273.121 372.205 274.656C372.106 274.951 371.85 275.148 371.555 275.148C371.555 275.148 371.555 275.148 371.536 275.148L368.643 275.109H368.623C367.934 275.109 367.363 275.66 367.344 276.368L367.206 284.831C367.206 284.811 367.206 284.811 367.206 284.831Z" fill="#1D1D2C"/>
<path d="M392.633 290.656C398.101 290.656 402.532 286.224 402.532 280.757C402.532 275.29 398.101 270.858 392.633 270.858C387.166 270.858 382.734 275.29 382.734 280.757C382.734 286.224 387.166 290.656 392.633 290.656Z" fill="white"/>
<path d="M392.614 291.345C390.783 291.345 388.973 290.872 387.339 289.928C382.282 287.015 380.55 280.521 383.462 275.463C384.879 273.003 387.162 271.251 389.898 270.523C392.633 269.795 395.487 270.169 397.927 271.586C402.985 274.499 404.717 280.993 401.804 286.051C400.387 288.511 398.104 290.262 395.369 290.99C394.464 291.227 393.539 291.345 392.614 291.345ZM392.653 271.527C391.846 271.527 391.039 271.625 390.252 271.842C387.871 272.472 385.883 274.007 384.663 276.132C382.124 280.54 383.64 286.189 388.028 288.727C390.154 289.967 392.653 290.282 395.015 289.652C397.396 289.022 399.384 287.487 400.604 285.362C403.142 280.954 401.627 275.306 397.238 272.767C395.821 271.96 394.247 271.527 392.653 271.527Z" fill="#1D1D2C"/>
</svg>
