<svg width="18" height="16" viewBox="0 0 18 16" fill="none" xmlns="http://www.w3.org/2000/svg">
<mask id="mask0_893_2228" style="mask-type:luminance" maskUnits="userSpaceOnUse" x="0" y="0" width="18" height="16">
<path d="M0 0H17.792V15.1338H0V0Z" fill="white"/>
</mask>
<g mask="url(#mask0_893_2228)">
<path d="M14.8977 5.88543C15.9541 5.88543 17.792 6.64737 17.792 7.56697C17.792 8.51283 15.9541 9.2485 14.8977 9.2485H11.296L8.19172 13.8701C8.01566 14.1328 7.68823 14.2931 7.33301 14.2931H5.59706C5.26963 14.2931 5.03179 14.0251 5.12137 13.7571L6.63492 9.2485H3.45955L2.12515 10.7619C2.03248 10.867 1.88422 10.9301 1.72977 10.9301H0.432444C0.191511 10.9301 1.17832e-07 10.7645 1.17832e-07 10.5622C1.17832e-07 10.528 0.00617789 10.4939 0.0154445 10.4597L0.988442 7.56697L0.0154444 4.6742C0.00308888 4.64004 0 4.60588 0 4.57173C0 4.36679 0.1946 4.20389 0.432444 4.20389H1.72977C1.88422 4.20389 2.03248 4.26695 2.12515 4.37205L3.45955 5.88543H6.63802L5.12446 1.37681C5.03179 1.10882 5.26963 0.84082 5.59706 0.84082H7.33301C7.68823 0.84082 8.01566 1.00372 8.19172 1.26383L11.296 5.88543H14.8977Z" fill="#9CA3AF"/>
</g>
</svg>
