<svg width="32" height="32" viewBox="0 0 32 32" fill="none" xmlns="http://www.w3.org/2000/svg">
<rect width="32" height="32" rx="16" fill="white" fill-opacity="0.08"/>
<path d="M16.6666 11.3332C16.6666 10.965 16.3681 10.6665 16 10.6665C15.6318 10.6665 15.3333 10.965 15.3333 11.3332V15.3331L11.3333 15.3331C10.9651 15.3331 10.6666 15.6316 10.6666 15.9998C10.6666 16.368 10.9651 16.6664 11.3333 16.6664L15.3333 16.6664V20.6665C15.3333 21.0347 15.6318 21.3332 16 21.3332C16.3681 21.3332 16.6666 21.0347 16.6666 20.6665V16.6664L20.6666 16.6664C21.0348 16.6664 21.3333 16.368 21.3333 15.9998C21.3333 15.6316 21.0348 15.3331 20.6666 15.3331L16.6666 15.3331V11.3332Z" fill="white"/>
</svg>
