<svg width="18" height="18" viewBox="0 0 18 18" fill="none" xmlns="http://www.w3.org/2000/svg">
<mask id="mask0_893_2245" style="mask-type:luminance" maskUnits="userSpaceOnUse" x="0" y="0" width="18" height="18">
<path d="M0 0H17.792V17.0255H0V0Z" fill="white"/>
</mask>
<g mask="url(#mask0_893_2245)">
<path d="M3.89163 0C2.97076 0 2.22363 0.71494 2.22363 1.59615V15.4294C2.22363 16.3106 2.97076 17.0255 3.89163 17.0255H7.22762V14.3653C7.22762 13.4841 7.97475 12.7692 8.89562 12.7692C9.8165 12.7692 10.5636 13.4841 10.5636 14.3653V17.0255H13.8996C14.8205 17.0255 15.5676 16.3106 15.5676 15.4294V1.59615C15.5676 0.71494 14.8205 0 13.8996 0H3.89163ZM4.44763 7.98073C4.44763 7.6881 4.69783 7.44868 5.00363 7.44868H6.11563C6.42143 7.44868 6.67163 7.6881 6.67163 7.98073V9.04482C6.67163 9.33749 6.42143 9.57687 6.11563 9.57687H5.00363C4.69783 9.57687 4.44763 9.33749 4.44763 9.04482V7.98073ZM8.33962 7.44868H9.45162C9.75742 7.44868 10.0076 7.6881 10.0076 7.98073V9.04482C10.0076 9.33749 9.75742 9.57687 9.45162 9.57687H8.33962C8.03382 9.57687 7.78362 9.33749 7.78362 9.04482V7.98073C7.78362 7.6881 8.03382 7.44868 8.33962 7.44868ZM11.1196 7.98073C11.1196 7.6881 11.3698 7.44868 11.6756 7.44868H12.7876C13.0935 7.44868 13.3436 7.6881 13.3436 7.98073V9.04482C13.3436 9.33749 13.0935 9.57687 12.7876 9.57687H11.6756C11.3698 9.57687 11.1196 9.33749 11.1196 9.04482V7.98073ZM5.00363 3.19229H6.11563C6.42143 3.19229 6.67163 3.43171 6.67163 3.72434V4.78843C6.67163 5.08106 6.42143 5.32048 6.11563 5.32048H5.00363C4.69783 5.32048 4.44763 5.08106 4.44763 4.78843V3.72434C4.44763 3.43171 4.69783 3.19229 5.00363 3.19229ZM7.78362 3.72434C7.78362 3.43171 8.03382 3.19229 8.33962 3.19229H9.45162C9.75742 3.19229 10.0076 3.43171 10.0076 3.72434V4.78843C10.0076 5.08106 9.75742 5.32048 9.45162 5.32048H8.33962C8.03382 5.32048 7.78362 5.08106 7.78362 4.78843V3.72434ZM11.6756 3.19229H12.7876C13.0935 3.19229 13.3436 3.43171 13.3436 3.72434V4.78843C13.3436 5.08106 13.0935 5.32048 12.7876 5.32048H11.6756C11.3698 5.32048 11.1196 5.08106 11.1196 4.78843V3.72434C11.1196 3.43171 11.3698 3.19229 11.6756 3.19229Z" fill="#9CA3AF"/>
</g>
</svg>
