<svg width="70" height="70" viewBox="0 0 70 70" fill="none" xmlns="http://www.w3.org/2000/svg">
<g clip-path="url(#clip0_25_335)">
<path fill-rule="evenodd" clip-rule="evenodd" d="M35 0C25.7174 0 16.815 3.68749 10.2513 10.2513C3.68749 16.815 0 25.7174 0 35C0 44.2826 3.68749 53.185 10.2513 59.7487C16.815 66.3125 25.7174 70 35 70C44.2826 70 53.185 66.3125 59.7487 59.7487C66.3125 53.185 70 44.2826 70 35C70 25.7174 66.3125 16.815 59.7487 10.2513C53.185 3.68749 44.2826 0 35 0ZM32.0833 13.125C34.7419 13.125 36.9454 14.9683 37.644 17.4096L47.8523 18.9117C48.65 18.0673 49.7904 17.5 51.0417 17.5C53.4479 17.5 55.4167 19.4688 55.4167 21.875C55.4167 23.5054 54.514 24.9521 53.184 25.7031L51.7708 43.7952C52.2229 44.4019 52.5 45.1281 52.5 45.9375C52.5 47.9427 50.8594 49.5833 48.8542 49.5833C48.0419 49.5833 47.2748 49.3529 46.6667 48.8994L32.0381 53.776C31.9046 54.6364 31.4687 55.421 30.8088 55.989C30.1489 56.5569 29.3082 56.8711 28.4375 56.875C27.4715 56.8719 26.546 56.4868 25.8629 55.8038C25.1798 55.1207 24.7947 54.1952 24.7917 53.2292C24.7917 52.4548 25.0585 51.7708 25.4756 51.1788L17.3629 37.6892C16.9374 37.8349 16.4914 37.9117 16.0417 37.9167C13.6354 37.9167 11.6667 35.9479 11.6667 33.5417C11.6667 31.1354 13.6354 29.1667 16.0417 29.1667C16.609 29.1667 17.1383 29.2877 17.6371 29.486L26.8888 21.6008C26.4708 20.7825 26.252 19.8772 26.25 18.9583C26.25 15.7456 28.8706 13.125 32.0833 13.125ZM32.0833 14.5833C29.6581 14.5833 27.7083 16.5331 27.7083 18.9583C27.7083 21.3835 29.6581 23.3333 32.0833 23.3333C34.5085 23.3333 36.4583 21.3835 36.4583 18.9583C36.4583 16.5331 34.5085 14.5833 32.0833 14.5833ZM37.9167 18.9131V18.9583C37.9167 22.171 35.296 24.7917 32.0833 24.7917C31.2525 24.7933 30.4312 24.6149 29.676 24.2688C28.9207 23.9226 28.2494 23.4169 27.7083 22.7865L18.9583 30.3056C19.5294 30.8069 19.957 31.4509 20.1974 32.1717C20.4377 32.8925 20.4822 33.6643 20.3263 34.4079L33.9062 35.6373C34.4954 34.4123 35.7438 33.5417 37.1875 33.5417C37.9167 33.5417 38.621 33.7604 39.1927 34.1338L48.1702 25.1562C47.6996 24.7486 47.3218 24.2448 47.0625 23.6787C46.8031 23.1127 46.6681 22.4976 46.6667 21.875C46.6667 21.2887 46.8198 20.7463 47.0312 20.2344L37.9167 18.9131ZM51.0417 18.9583C49.4229 18.9583 48.125 20.2563 48.125 21.875C48.125 23.4938 49.4229 24.7917 51.0417 24.7917C51.4251 24.793 51.8049 24.7185 52.1594 24.5724C52.5139 24.4263 52.836 24.2115 53.1071 23.9404C53.3782 23.6693 53.593 23.3472 53.7391 22.9928C53.8852 22.6383 53.9597 22.2584 53.9583 21.875C53.9583 20.2563 52.6604 18.9583 51.0417 18.9583ZM49.4462 25.9306L40.196 35.1823C40.5898 35.7656 40.8333 36.4365 40.8333 37.1875C40.8333 37.87 40.616 38.5088 40.2865 39.0556L46.7585 42.9756C47.3701 42.5375 48.1019 42.2987 48.8542 42.2917C49.3915 42.2975 49.9208 42.422 50.4044 42.6562L51.6337 26.2048C51.4377 26.2339 51.2399 26.249 51.0417 26.25C50.4715 26.25 49.9479 26.1319 49.4462 25.9306ZM16.0417 30.625C14.4229 30.625 13.125 31.9229 13.125 33.5417C13.125 35.1604 14.4229 36.4583 16.0417 36.4583C17.6604 36.4583 18.9583 35.1604 18.9583 33.5417C18.9583 31.9229 17.6604 30.625 16.0417 30.625ZM37.1875 35C35.9713 35 35 35.9713 35 37.1875C35 38.4038 35.9713 39.375 37.1875 39.375C38.4038 39.375 39.375 38.4038 39.375 37.1875C39.375 35.9713 38.4038 35 37.1875 35ZM19.7779 35.821C19.5039 36.2763 19.1491 36.6776 18.7308 37.0052L26.5694 50.1302C27.1311 49.7822 27.7768 49.5932 28.4375 49.5833C30.0898 49.5833 31.4577 50.7121 31.901 52.2273L45.6648 47.6685C45.37 47.1389 45.213 46.5437 45.2083 45.9375C45.2083 45.2229 45.4417 44.5885 45.8004 44.0227L39.3298 40.1494C38.707 40.6001 37.9563 40.8398 37.1875 40.8333C36.2215 40.8303 35.296 40.4452 34.6129 39.7621C33.9298 39.079 33.5447 38.1535 33.5417 37.1875C33.5417 37.1408 33.5402 37.0956 33.5417 37.0504L19.7779 35.821ZM48.8542 43.75C47.6379 43.75 46.6667 44.7213 46.6667 45.9375C46.6667 47.1538 47.6379 48.125 48.8542 48.125C50.0704 48.125 51.0417 47.1538 51.0417 45.9375C51.0417 44.7213 50.0704 43.75 48.8542 43.75ZM28.4375 51.0417C27.2213 51.0417 26.25 52.0129 26.25 53.2292C26.25 54.4454 27.2213 55.4167 28.4375 55.4167C29.6538 55.4167 30.625 54.4454 30.625 53.2292C30.625 52.0129 29.6538 51.0417 28.4375 51.0417Z" fill="#34A853"/>
</g>
<defs>
<clipPath id="clip0_25_335">
<rect width="70" height="70" fill="white"/>
</clipPath>
</defs>
</svg>
