<svg width="36" height="40" viewBox="0 0 36 40" fill="none" xmlns="http://www.w3.org/2000/svg">
<path d="M15.2966 11.9009C15.5382 11.2479 16.4618 11.2479 16.7034 11.9009L18.5812 16.9757C18.6572 17.181 18.819 17.3428 19.0243 17.4188L24.0991 19.2966C24.7521 19.5382 24.7521 20.4618 24.0991 20.7034L19.0243 22.5812C18.819 22.6572 18.6572 22.819 18.5812 23.0243L16.7034 28.0991C16.4618 28.7521 15.5382 28.7521 15.2966 28.0991L13.4188 23.0243C13.3428 22.819 13.181 22.6572 12.9757 22.5812L7.90088 20.7034C7.24792 20.4618 7.24792 19.5382 7.90088 19.2966L12.9757 17.4188C13.181 17.3428 13.3428 17.181 13.4188 16.9757L15.2966 11.9009Z" fill="white"/>
</svg>
