<svg width="60" height="60" viewBox="0 0 60 60" fill="none" xmlns="http://www.w3.org/2000/svg">
<path d="M12.7663 57.8857C18.4043 59.2951 24.2005 60 30 60C35.7977 59.9985 41.5969 59.2951 47.2322 57.8857C52.4906 56.5729 56.5728 52.4907 57.8856 47.2337C60.7048 35.959 60.7048 24.041 57.8856 12.7679C56.5728 7.50941 52.4906 3.42721 47.2337 2.11439C47.2322 2.11439 47.2352 2.11439 47.2337 2.11439C35.9606 -0.704797 24.0382 -0.704797 12.7678 2.11439C7.50936 3.42691 3.42719 7.50911 2.11438 12.7661C-0.704792 24.0407 -0.704792 35.9587 2.11438 47.2319C3.42719 52.4907 7.50936 56.5729 12.7663 57.8857ZM7.93726 14.2211C8.71234 11.1193 11.1195 8.7121 14.2229 7.93701C19.3832 6.6461 24.6917 6.00124 30 6.00124C35.3083 6.00124 40.6168 6.64579 45.7771 7.93671C48.879 8.7118 51.2877 11.119 52.0627 14.2223C54.6431 24.5434 54.6431 35.4561 52.0627 45.7783C51.2877 48.8802 48.8805 51.2874 45.7771 52.0625C35.4562 54.6443 24.545 54.6443 14.2214 52.0625C11.1195 51.2874 8.71234 48.8802 7.93726 45.7768C5.35695 35.4564 5.35695 24.5434 7.93726 14.2211Z" fill="#00C7BE"/>
<path d="M39.0022 33.0005H20.9979C19.8259 33.0005 18.7621 33.6832 18.2712 34.7469C17.7818 35.8122 17.9576 37.065 18.7195 37.9541L23.8639 43.9556C24.4572 44.6472 25.2983 45.0034 26.1436 45.0034C26.8352 45.0034 27.5296 44.7661 28.0952 44.2812C29.3537 43.2027 29.499 41.3083 28.4205 40.0495L27.5224 39.002H39.0022C40.6592 39.002 42.0029 37.6582 42.0029 36.0012C42.0029 34.3442 40.6592 33.0005 39.0022 33.0005ZM20.9979 26.999H39.0022C40.1743 26.999 41.238 26.3164 41.729 25.2526C42.2184 24.1874 42.0425 22.9346 41.2807 22.0454L36.1362 16.044C35.0563 14.7855 33.1604 14.6372 31.9046 15.7187C30.6461 16.7972 30.5009 18.6915 31.5794 19.9503L32.4778 20.9976H20.9979C19.3409 20.9976 17.9972 22.3413 17.9972 23.9983C17.9972 25.6553 19.3409 26.999 20.9979 26.999Z" fill="#00C7BE"/>
</svg>
