<svg width="40" height="40" viewBox="0 0 40 40" fill="none" xmlns="http://www.w3.org/2000/svg">
<path d="M0 20C0 8.9543 8.9543 0 20 0C31.0457 0 40 8.9543 40 20C40 31.0457 31.0457 40 20 40C8.9543 40 0 31.0457 0 20ZM20 1C9.50659 1 1 9.50659 1 20C1 30.4934 9.50659 39 20 39C30.4934 39 39 30.4934 39 20C39 9.50659 30.4934 1 20 1Z" fill="#D4AF37" fill-opacity="0.3"/>
<mask id="mask0_3016_1494" style="mask-type:luminance" maskUnits="userSpaceOnUse" x="10" y="10" width="20" height="20">
<path d="M10 10H30V30H10V10Z" fill="white"/>
</mask>
<g mask="url(#mask0_3016_1494)">
<path d="M27.9441 15.9261C27.9568 16.1038 27.9568 16.2815 27.9568 16.4591C27.9568 21.8779 23.8325 28.1215 16.2944 28.1215C13.9721 28.1215 11.8147 27.4489 10 26.2815C10.33 26.3195 10.6472 26.3322 10.9898 26.3322C12.906 26.3322 14.67 25.685 16.0787 24.5809C14.2766 24.5429 12.7665 23.3627 12.2462 21.7383C12.5 21.7764 12.7538 21.8018 13.0203 21.8018C13.3883 21.8018 13.7564 21.751 14.099 21.6622C12.2208 21.2814 10.8121 19.6317 10.8121 17.6393V17.5886C11.3578 17.8932 11.9924 18.0835 12.6649 18.1089C11.5609 17.3728 10.8375 16.1165 10.8375 14.6952C10.8375 13.9337 11.0405 13.2358 11.3959 12.6266C13.4137 15.1139 16.4467 16.7383 19.8477 16.916C19.7842 16.6114 19.7461 16.2942 19.7461 15.9769C19.7461 13.718 21.5736 11.8779 23.8451 11.8779C25.0253 11.8779 26.0913 12.3729 26.84 13.1723C27.7664 12.9947 28.6547 12.652 29.4416 12.1825C29.137 13.1343 28.4898 13.9338 27.6395 14.4414C28.4644 14.3526 29.2639 14.1241 29.9999 13.8069C29.4416 14.619 28.7436 15.3423 27.9441 15.9261Z" fill="#F1CB68"/>
</g>
</svg>
