<svg width="18" height="18" viewBox="0 0 18 18" fill="none" xmlns="http://www.w3.org/2000/svg">
<mask id="mask0_893_2261" style="mask-type:luminance" maskUnits="userSpaceOnUse" x="0" y="0" width="18" height="18">
<path d="M0 0H17.792V17.0255H0V0Z" fill="white"/>
</mask>
<g mask="url(#mask0_893_2261)">
<path d="M4.69819 3.90377L3.79122 6.38445H14.0008L13.0938 3.90377C12.9374 3.47814 12.5169 3.19216 12.0444 3.19216H5.74764C5.27504 3.19216 4.85457 3.47814 4.69819 3.90377ZM1.3761 6.54406L2.5993 3.20214C3.06842 1.92189 4.32984 1.06396 5.74764 1.06396H12.0444C13.4621 1.06396 14.7236 1.92189 15.1927 3.20214L16.4159 6.54406C17.2221 6.86329 17.792 7.62478 17.792 8.51264V13.3011V14.8972C17.792 15.4858 17.295 15.9613 16.68 15.9613H15.568C14.9529 15.9613 14.456 15.4858 14.456 14.8972V13.3011H3.33599V14.8972C3.33599 15.4858 2.83907 15.9613 2.224 15.9613H1.112C0.496924 15.9613 0 15.4858 0 14.8972V13.3011V8.51264C0 7.62478 0.569899 6.86329 1.3761 6.54406ZM4.44799 9.57674C4.44799 9.28289 4.33943 9.03208 4.12229 8.82431C3.90517 8.61653 3.64307 8.51264 3.33599 8.51264C3.02892 8.51264 2.76682 8.61653 2.5497 8.82431C2.33256 9.03208 2.224 9.28289 2.224 9.57674C2.224 9.8706 2.33256 10.1214 2.5497 10.3292C2.76682 10.537 3.02892 10.6408 3.33599 10.6408C3.64307 10.6408 3.90517 10.537 4.12229 10.3292C4.33943 10.1214 4.44799 9.8706 4.44799 9.57674ZM14.456 10.6408C14.7631 10.6408 15.0251 10.537 15.2423 10.3292C15.4594 10.1214 15.568 9.8706 15.568 9.57674C15.568 9.28289 15.4594 9.03208 15.2423 8.82431C15.0251 8.61653 14.7631 8.51264 14.456 8.51264C14.1489 8.51264 13.8868 8.61653 13.6697 8.82431C13.4525 9.03208 13.344 9.28289 13.344 9.57674C13.344 9.8706 13.4525 10.1214 13.6697 10.3292C13.8868 10.537 14.1489 10.6408 14.456 10.6408Z" fill="#9CA3AF"/>
</g>
</svg>
