<svg width="18" height="18" viewBox="0 0 18 18" fill="none" xmlns="http://www.w3.org/2000/svg">
<mask id="mask0_893_1918" style="mask-type:luminance" maskUnits="userSpaceOnUse" x="0" y="0" width="18" height="18">
<path d="M0 0H17.792V17.0255H0V0Z" fill="white"/>
</mask>
<g mask="url(#mask0_893_1918)">
<path d="M4.05588 1.12471C4.21225 0.921864 4.46245 0.798828 4.72655 0.798828H13.0665C13.3306 0.798828 13.5809 0.918539 13.7372 1.12471L17.6292 6.17916C17.8655 6.4851 17.8412 6.90741 17.577 7.19006L9.51506 15.7028C9.35876 15.8691 9.1328 15.9655 8.89652 15.9655C8.66024 15.9655 8.43784 15.8691 8.27799 15.7028L0.216005 7.19006C-0.051569 6.90741 -0.0724189 6.4851 0.163881 6.17916L4.05588 1.12471ZM5.39375 2.44818C5.27907 2.53131 5.2478 2.68095 5.32077 2.79734L7.31542 5.97632L2.20023 6.38534C2.05776 6.39531 1.94656 6.5117 1.94656 6.65136C1.94656 6.79102 2.05776 6.90409 2.20023 6.91738L8.87222 7.44943H8.91743L15.5894 6.91738C15.7318 6.90741 15.843 6.79102 15.843 6.65136C15.843 6.5117 15.7318 6.39863 15.5894 6.38534L10.4777 5.97965L12.4724 2.80066C12.5453 2.68427 12.514 2.53131 12.3993 2.45151C12.2846 2.3717 12.1248 2.385 12.0276 2.48476L8.89652 5.72692L5.76557 2.48143C5.66827 2.38168 5.50842 2.36837 5.39375 2.44818Z" fill="#9CA3AF"/>
</g>
</svg>
